<svg id="Layer_1" data-name="Layer 1" xmlns="http://www.w3.org/2000/svg" xmlns:xlink="http://www.w3.org/1999/xlink" viewBox="0 0 368.09 73.81"><defs><style>.cls-1{stroke:#ff0;stroke-linecap:round;stroke-linejoin:round;stroke-width:12px;}.cls-2{fill:#fcdf00;}.cls-3{fill:#663411;}.cls-4{fill:url(#linear-gradient);}.cls-5{fill:url(#linear-gradient-2);}.cls-6{fill:url(#linear-gradient-3);}.cls-7{fill:url(#linear-gradient-4);}.cls-8{fill:url(#linear-gradient-5);}.cls-9{fill:url(#linear-gradient-6);}.cls-10{fill:url(#linear-gradient-7);}.cls-11{fill:url(#linear-gradient-8);}.cls-12{fill:url(#radial-gradient);}.cls-13{fill:url(#linear-gradient-9);}.cls-14{fill:url(#linear-gradient-10);}.cls-15{fill:url(#radial-gradient-2);}.cls-16{fill:url(#radial-gradient-3);}.cls-17{fill:url(#radial-gradient-4);}.cls-18{fill:url(#linear-gradient-11);}.cls-19{fill:url(#radial-gradient-5);}.cls-20{fill:url(#radial-gradient-6);}.cls-21{fill:url(#linear-gradient-12);}.cls-22{fill:url(#linear-gradient-13);}.cls-23{fill:url(#linear-gradient-14);}.cls-24{fill:url(#linear-gradient-15);}.cls-25{fill:url(#linear-gradient-16);}.cls-26{fill:url(#linear-gradient-17);}.cls-27{fill:url(#linear-gradient-18);}.cls-28{fill:url(#linear-gradient-19);}.cls-29{fill:url(#linear-gradient-20);}.cls-30{fill:url(#linear-gradient-21);}.cls-31{fill:url(#linear-gradient-22);}.cls-32{fill:url(#linear-gradient-23);}.cls-33{fill:url(#radial-gradient-7);}.cls-34{fill:url(#radial-gradient-8);}.cls-35{fill:url(#radial-gradient-9);}.cls-36{fill:url(#linear-gradient-25);}.cls-37{fill:url(#linear-gradient-26);}.cls-38{fill:url(#linear-gradient-27);}.cls-39{fill:url(#radial-gradient-10);}.cls-40{fill:url(#linear-gradient-28);}.cls-41{fill:url(#linear-gradient-29);}.cls-42{fill:url(#radial-gradient-11);}.cls-43{fill:url(#radial-gradient-12);}.cls-44{fill:url(#radial-gradient-13);}.cls-45{fill:url(#radial-gradient-14);}.cls-46{fill:url(#radial-gradient-15);}.cls-47{fill:url(#radial-gradient-16);}.cls-48{fill:url(#radial-gradient-17);}.cls-49{fill:url(#linear-gradient-30);}.cls-50{fill:url(#linear-gradient-31);}.cls-51{fill:url(#linear-gradient-32);}.cls-52{fill:url(#linear-gradient-33);}.cls-53{fill:url(#linear-gradient-34);}.cls-54{fill:url(#linear-gradient-35);}.cls-55{fill:url(#linear-gradient-36);}.cls-56{fill:url(#linear-gradient-37);}.cls-57{fill:url(#linear-gradient-38);}.cls-58{fill:url(#linear-gradient-39);}.cls-59{fill:url(#linear-gradient-40);}.cls-60{fill:url(#linear-gradient-41);}.cls-61{fill:url(#radial-gradient-18);}.cls-62{fill:url(#radial-gradient-19);}.cls-63{fill:url(#linear-gradient-42);}.cls-64{fill:url(#linear-gradient-43);}.cls-65{fill:url(#linear-gradient-44);}.cls-66{fill:url(#radial-gradient-20);}.cls-67{fill:url(#radial-gradient-21);}.cls-68{fill:url(#radial-gradient-22);}.cls-69{fill:url(#radial-gradient-23);}.cls-70{fill:url(#radial-gradient-24);}.cls-71{fill:url(#radial-gradient-25);}.cls-72{fill:url(#radial-gradient-26);}.cls-73{fill:url(#radial-gradient-27);}.cls-74{fill:url(#radial-gradient-28);}.cls-75{fill:url(#linear-gradient-45);}.cls-76{fill:url(#linear-gradient-46);}.cls-77{fill:url(#linear-gradient-47);}.cls-78{fill:url(#radial-gradient-29);}.cls-79{fill:url(#radial-gradient-30);}.cls-80{fill:url(#radial-gradient-31);}.cls-81{fill:url(#linear-gradient-48);}.cls-82{fill:url(#radial-gradient-32);}.cls-83{fill:url(#linear-gradient-49);}.cls-84{fill:url(#linear-gradient-50);}.cls-85{fill:url(#linear-gradient-51);}.cls-86{fill:url(#linear-gradient-52);}.cls-87{fill:url(#linear-gradient-53);}.cls-88{fill:url(#linear-gradient-54);}.cls-89{fill:url(#linear-gradient-55);}.cls-90{fill:url(#linear-gradient-56);}.cls-91{fill:url(#linear-gradient-57);}.cls-92{fill:url(#linear-gradient-58);}.cls-93{fill:url(#linear-gradient-59);}.cls-94{fill:url(#linear-gradient-60);}.cls-95{fill:url(#linear-gradient-61);}.cls-96{fill:url(#radial-gradient-33);}.cls-97{fill:url(#radial-gradient-34);}.cls-98{fill:url(#radial-gradient-35);}.cls-99{fill:url(#linear-gradient-63);}.cls-100{fill:url(#linear-gradient-64);}.cls-101{fill:url(#linear-gradient-65);}.cls-102{fill:url(#radial-gradient-36);}.cls-103{fill:url(#linear-gradient-66);}.cls-104{fill:url(#linear-gradient-67);}.cls-105{fill:url(#radial-gradient-37);}.cls-106{fill:url(#radial-gradient-38);}.cls-107{fill:url(#radial-gradient-39);}.cls-108{fill:url(#radial-gradient-40);}.cls-109{fill:url(#radial-gradient-41);}.cls-110{fill:url(#radial-gradient-42);}.cls-111{fill:url(#radial-gradient-43);}.cls-112{fill:url(#linear-gradient-68);}.cls-113{fill:url(#linear-gradient-69);}.cls-114{fill:url(#linear-gradient-70);}.cls-115{fill:url(#linear-gradient-71);}.cls-116{fill:url(#linear-gradient-72);}.cls-117{fill:url(#linear-gradient-73);}.cls-118{fill:url(#linear-gradient-74);}.cls-119{fill:url(#linear-gradient-75);}.cls-120{fill:url(#linear-gradient-76);}.cls-121{fill:url(#linear-gradient-77);}.cls-122{fill:url(#linear-gradient-78);}.cls-123{fill:url(#linear-gradient-79);}.cls-124{fill:url(#radial-gradient-44);}.cls-125{fill:url(#radial-gradient-45);}.cls-126{fill:url(#linear-gradient-80);}.cls-127{fill:url(#linear-gradient-81);}.cls-128{fill:url(#linear-gradient-82);}.cls-129{fill:url(#radial-gradient-46);}.cls-130{fill:url(#radial-gradient-47);}.cls-131{fill:url(#radial-gradient-48);}.cls-132{fill:url(#radial-gradient-49);}.cls-133{fill:url(#radial-gradient-50);}.cls-134{fill:url(#radial-gradient-51);}.cls-135{fill:url(#radial-gradient-52);}.cls-136{fill:url(#radial-gradient-53);}.cls-137{fill:url(#radial-gradient-54);}.cls-138{fill:url(#linear-gradient-83);}.cls-139{fill:url(#linear-gradient-84);}.cls-140{fill:url(#linear-gradient-85);}.cls-141{fill:url(#linear-gradient-86);}.cls-142{fill:url(#linear-gradient-87);}.cls-143{fill:url(#linear-gradient-88);}.cls-144{fill:url(#linear-gradient-89);}.cls-145{fill:url(#linear-gradient-90);}.cls-146{fill:url(#radial-gradient-55);}.cls-147{fill:url(#linear-gradient-91);}.cls-148{fill:url(#linear-gradient-92);}.cls-149{fill:url(#radial-gradient-56);}.cls-150{fill:url(#radial-gradient-57);}.cls-151{fill:url(#radial-gradient-58);}.cls-152{fill:url(#linear-gradient-93);}.cls-153{fill:url(#radial-gradient-59);}.cls-154{fill:url(#radial-gradient-60);}.cls-155{fill:url(#linear-gradient-94);}.cls-156{fill:url(#linear-gradient-95);}.cls-157{fill:url(#radial-gradient-61);}.cls-158{fill:url(#radial-gradient-62);}.cls-159{fill:url(#radial-gradient-63);}.cls-160{fill:url(#radial-gradient-64);}</style><linearGradient id="linear-gradient" x2="1" gradientTransform="matrix(-1.83, 15.06, 14.27, 1.94, 387.08, 306.74)" gradientUnits="userSpaceOnUse"><stop offset="0" stop-color="#fcdf00"/><stop offset="0.11" stop-color="#fcdf00"/><stop offset="0.89" stop-color="#fcdf00"/><stop offset="1" stop-color="#663411"/></linearGradient><linearGradient id="linear-gradient-2" x2="1" gradientTransform="matrix(11.2, -34.82, -32.98, -11.82, 372.26, 323.01)" gradientUnits="userSpaceOnUse"><stop offset="0" stop-color="#663411"/><stop offset="0.23" stop-color="#663411"/><stop offset="0.89" stop-color="#fcdf00"/><stop offset="1" stop-color="#fcdf00"/></linearGradient><linearGradient id="linear-gradient-3" x2="1" gradientTransform="matrix(30.82, -75.57, -71.58, -32.54, 372.65, 357.42)" gradientUnits="userSpaceOnUse"><stop offset="0" stop-color="#fcdf00"/><stop offset="0.46" stop-color="#fcdf00"/><stop offset="0.49" stop-color="#663411"/><stop offset="0.66" stop-color="#663411"/><stop offset="0.68" stop-color="#fcdf00"/><stop offset="1" stop-color="#fcdf00"/></linearGradient><linearGradient id="linear-gradient-4" x2="1" gradientTransform="matrix(14.05, -34.11, -32.31, -14.83, 369.83, 322.3)" gradientUnits="userSpaceOnUse"><stop offset="0" stop-color="#fcdf00"/><stop offset="0.22" stop-color="#fcdf00"/><stop offset="0.81" stop-color="#663411"/><stop offset="1" stop-color="#663411"/></linearGradient><linearGradient id="linear-gradient-5" x2="1" gradientTransform="matrix(-11.41, 0, 0, 12.04, 398.65, 276.13)" gradientUnits="userSpaceOnUse"><stop offset="0" stop-color="#fcdf00"/><stop offset="0.16" stop-color="#fcdf00"/><stop offset="0.7" stop-color="#663411"/><stop offset="1" stop-color="#663411"/></linearGradient><linearGradient id="linear-gradient-6" x2="1" gradientTransform="matrix(0, 12.71, 12.04, 0, 358, 308.11)" gradientUnits="userSpaceOnUse"><stop offset="0" stop-color="#fcdf00"/><stop offset="0.02" stop-color="#fcdf00"/><stop offset="0.33" stop-color="#fccf00" stop-opacity="0.8"/><stop offset="0.63" stop-color="#fccf00" stop-opacity="0.2"/><stop offset="0.87" stop-color="#fccf00" stop-opacity="0.5"/><stop offset="0.99" stop-color="#fcde00" stop-opacity="0.98"/><stop offset="0.99" stop-color="#fcdf00"/><stop offset="1" stop-color="#fcdf00"/></linearGradient><linearGradient id="linear-gradient-7" x2="1" gradientTransform="matrix(2.16, -14.29, -13.53, -2.29, 389.1, 320.96)" gradientUnits="userSpaceOnUse"><stop offset="0" stop-color="#341000" stop-opacity="0"/><stop offset="0.02" stop-color="#341000" stop-opacity="0"/><stop offset="0.14" stop-color="#341000" stop-opacity="0.2"/><stop offset="0.34" stop-color="#341000" stop-opacity="0.5"/><stop offset="0.63" stop-color="#341000" stop-opacity="0.2"/><stop offset="0.86" stop-color="#341000" stop-opacity="0.5"/><stop offset="0.95" stop-color="#341000" stop-opacity="0"/><stop offset="1" stop-color="#341000" stop-opacity="0"/></linearGradient><linearGradient id="linear-gradient-8" x2="1" gradientTransform="matrix(1.58, -1.51, -1.43, -1.67, 391.86, 306.94)" gradientUnits="userSpaceOnUse"><stop offset="0" stop-color="#fcdf00" stop-opacity="0"/><stop offset="0.73" stop-color="#fcdf00" stop-opacity="0"/><stop offset="1" stop-color="#663411"/></linearGradient><radialGradient id="radial-gradient" cx="0" cy="0" r="1" gradientTransform="matrix(1.73, 0.44, -0.32, 1.4, 386.75, 306.48)" gradientUnits="userSpaceOnUse"><stop offset="0" stop-color="#fff" stop-opacity="0.85"/><stop offset="0.45" stop-color="#fff" stop-opacity="0.5"/><stop offset="1" stop-color="#fff" stop-opacity="0"/></radialGradient><linearGradient id="linear-gradient-9" x2="1" gradientTransform="matrix(10.87, 0, 0, -11.48, 383.34, 276.13)" gradientUnits="userSpaceOnUse"><stop offset="0" stop-color="#fcdf00"/><stop offset="0.03" stop-color="#fcdf00"/><stop offset="0.23" stop-color="#341000" stop-opacity="0.5"/><stop offset="0.42" stop-color="#341000"/><stop offset="0.56" stop-color="#341000"/><stop offset="0.66" stop-color="#341000" stop-opacity="0.5"/><stop offset="0.8" stop-color="#341000" stop-opacity="0"/><stop offset="1" stop-color="#341000" stop-opacity="0"/></linearGradient><linearGradient id="linear-gradient-10" gradientTransform="matrix(11.2, -34.82, -32.98, -11.82, 383.33, 326.97)" xlink:href="#linear-gradient-2"/><radialGradient id="radial-gradient-2" cx="0" cy="0" r="1" gradientTransform="matrix(4.94, 1.13, -0.79, 3.85, 372.26, 321.73)" gradientUnits="userSpaceOnUse"><stop offset="0" stop-color="#341000"/><stop offset="0.54" stop-color="#341000" stop-opacity="0.5"/><stop offset="1" stop-color="#341000" stop-opacity="0"/></radialGradient><radialGradient id="radial-gradient-3" cx="0" cy="0" r="1" gradientTransform="translate(370.42 320.28) scale(3.85 4.06)" gradientUnits="userSpaceOnUse"><stop offset="0" stop-color="#fff" stop-opacity="0.85"/><stop offset="0.34" stop-color="#fff" stop-opacity="0.5"/><stop offset="1" stop-color="#fff" stop-opacity="0"/></radialGradient><radialGradient id="radial-gradient-4" cx="0" cy="0" r="1" gradientTransform="translate(390.4 292.21) scale(2.82 2.98)" gradientUnits="userSpaceOnUse"><stop offset="0" stop-color="#fff" stop-opacity="0.85"/><stop offset="0.49" stop-color="#fff" stop-opacity="0.5"/><stop offset="1" stop-color="#fff" stop-opacity="0"/></radialGradient><linearGradient id="linear-gradient-11" x2="1" gradientTransform="matrix(-4.04, -6.74, -6.38, 4.26, 392.57, 294.86)" gradientUnits="userSpaceOnUse"><stop offset="0" stop-color="#fcdf00"/><stop offset="0.04" stop-color="#fcdf00"/><stop offset="0.16" stop-color="#341000" stop-opacity="0"/><stop offset="0.47" stop-color="#341000"/><stop offset="0.87" stop-color="#341000" stop-opacity="0.5"/><stop offset="1" stop-color="#341000" stop-opacity="0"/></linearGradient><radialGradient id="radial-gradient-5" cx="0" cy="0" r="1" gradientTransform="translate(389.17 313.96) rotate(90) scale(24.74 0.51)" gradientUnits="userSpaceOnUse"><stop offset="0" stop-color="#fff" stop-opacity="0.7"/><stop offset="0.94" stop-color="#fff" stop-opacity="0"/><stop offset="1" stop-color="#fff" stop-opacity="0"/></radialGradient><radialGradient id="radial-gradient-6" cx="0" cy="0" r="1" gradientTransform="translate(389.2 313.53) rotate(90) scale(10.03 0.39)" gradientUnits="userSpaceOnUse"><stop offset="0" stop-color="#341000" stop-opacity="0.5"/><stop offset="1" stop-color="#341000" stop-opacity="0"/></radialGradient><linearGradient id="linear-gradient-12" x2="1" gradientTransform="matrix(13.43, 0, 0, -14.18, 408.45, 276.13)" gradientUnits="userSpaceOnUse"><stop offset="0" stop-color="#663411"/><stop offset="0.71" stop-color="#663411"/><stop offset="1" stop-color="#fcdf00"/></linearGradient><linearGradient id="linear-gradient-13" x2="1" gradientTransform="matrix(9.95, 0, 0, -10.51, 408.42, 276.13)" gradientUnits="userSpaceOnUse"><stop offset="0" stop-color="#fcdf00"/><stop offset="0.8" stop-color="#fcdf00"/><stop offset="0.92" stop-color="#fcdf00"/><stop offset="1" stop-color="#fcdf00"/></linearGradient><linearGradient id="linear-gradient-14" x2="1" gradientTransform="matrix(7.33, 33.42, 31.65, -7.73, 400.23, 290.07)" gradientUnits="userSpaceOnUse"><stop offset="0" stop-color="#fcdf00"/><stop offset="0.02" stop-color="#fcdf00"/><stop offset="0.94" stop-color="#fcdf00"/><stop offset="1" stop-color="#663411"/></linearGradient><linearGradient id="linear-gradient-15" x2="1" gradientTransform="matrix(-13.58, 0, 0, 14.34, 419.73, 276.13)" gradientUnits="userSpaceOnUse"><stop offset="0" stop-color="#663411"/><stop offset="0.01" stop-color="#663411"/><stop offset="0.13" stop-color="#fcdf00"/><stop offset="1" stop-color="#fcdf00"/></linearGradient><linearGradient id="linear-gradient-16" x2="1" gradientTransform="matrix(21.21, 0, 0, -22.4, 400.8, 276.13)" gradientUnits="userSpaceOnUse"><stop offset="0" stop-color="#663411"/><stop offset="0.85" stop-color="#663411"/><stop offset="1" stop-color="#fcdf00"/></linearGradient><linearGradient id="linear-gradient-17" x2="1" gradientTransform="matrix(8.27, -5.33, -5.05, -8.73, 416.41, 322)" gradientUnits="userSpaceOnUse"><stop offset="0" stop-color="#663411"/><stop offset="0.19" stop-color="#663411"/><stop offset="0.57" stop-color="#fcdf00"/><stop offset="1" stop-color="#fcdf00"/></linearGradient><linearGradient id="linear-gradient-18" x2="1" gradientTransform="matrix(11.25, 0, 0, -11.88, 407.46, 276.13)" gradientUnits="userSpaceOnUse"><stop offset="0" stop-color="#fcdf00"/><stop offset="0.82" stop-color="#fcdf00"/><stop offset="0.92" stop-color="#fcdf00"/><stop offset="1" stop-color="#fcdf00"/></linearGradient><linearGradient id="linear-gradient-19" x2="1" gradientTransform="matrix(3.28, -2.46, -2.33, -3.46, 415.21, 304.1)" gradientUnits="userSpaceOnUse"><stop offset="0" stop-color="#663411"/><stop offset="0.54" stop-color="#663411"/><stop offset="0.58" stop-color="#fcdf00"/><stop offset="1" stop-color="#fcdf00"/></linearGradient><linearGradient id="linear-gradient-20" x2="1" gradientTransform="matrix(0, 27.74, 26.27, 0, 396.59, 291.17)" gradientUnits="userSpaceOnUse"><stop offset="0" stop-color="#fcdf00"/><stop offset="0.02" stop-color="#fcdf00"/><stop offset="0.09" stop-color="#fccf00" stop-opacity="0.8"/><stop offset="0.39" stop-color="#fcc100" stop-opacity="0.5"/><stop offset="0.5" stop-color="#fccf00" stop-opacity="0.2"/><stop offset="0.65" stop-color="#fcc100" stop-opacity="0.5"/><stop offset="0.92" stop-color="#fccf00" stop-opacity="0.5"/><stop offset="0.99" stop-color="#fcde00" stop-opacity="0.98"/><stop offset="0.99" stop-color="#fcdf00"/><stop offset="1" stop-color="#fcdf00"/></linearGradient><linearGradient id="linear-gradient-21" x2="1" gradientTransform="matrix(6.75, 33.06, 31.31, -7.13, 405.85, 289.48)" gradientUnits="userSpaceOnUse"><stop offset="0" stop-color="#341000"/><stop offset="0" stop-color="#341000"/><stop offset="0.07" stop-color="#341000" stop-opacity="0"/><stop offset="0.16" stop-color="#341000" stop-opacity="0.2"/><stop offset="0.34" stop-color="#341000" stop-opacity="0.5"/><stop offset="0.58" stop-color="#341000" stop-opacity="0.2"/><stop offset="0.77" stop-color="#341000" stop-opacity="0.5"/><stop offset="0.89" stop-color="#341000" stop-opacity="0"/><stop offset="0.98" stop-color="#341000"/><stop offset="1" stop-color="#341000"/></linearGradient><linearGradient id="linear-gradient-22" x2="1" gradientTransform="matrix(21.21, 0, 0, -22.4, 400.8, 276.13)" gradientUnits="userSpaceOnUse"><stop offset="0" stop-color="#fcdf00"/><stop offset="0.01" stop-color="#fcdf00"/><stop offset="0.13" stop-color="#341000" stop-opacity="0.5"/><stop offset="0.25" stop-color="#341000"/><stop offset="0.33" stop-color="#341000" stop-opacity="0.5"/><stop offset="0.55" stop-color="#341000" stop-opacity="0"/><stop offset="0.73" stop-color="#341000" stop-opacity="0"/><stop offset="0.89" stop-color="#341000"/><stop offset="1" stop-color="#341000"/></linearGradient><linearGradient id="linear-gradient-23" x2="1" gradientTransform="matrix(0, 5.93, 5.62, 0, 396.59, 302.59)" gradientUnits="userSpaceOnUse"><stop offset="0" stop-color="#fcdf00"/><stop offset="0.01" stop-color="#fcdf00"/><stop offset="0.11" stop-color="#341000" stop-opacity="0.5"/><stop offset="0.42" stop-color="#341000"/><stop offset="0.56" stop-color="#341000"/><stop offset="0.66" stop-color="#341000" stop-opacity="0.5"/><stop offset="0.8" stop-color="#341000" stop-opacity="0"/><stop offset="1" stop-color="#fcdf00"/></linearGradient><radialGradient id="radial-gradient-7" cx="0" cy="0" r="1" gradientTransform="translate(407.84 305) scale(4.05 4.27)" gradientUnits="userSpaceOnUse"><stop offset="0" stop-color="#fff" stop-opacity="0.85"/><stop offset="0.94" stop-color="#fff" stop-opacity="0"/><stop offset="1" stop-color="#fff" stop-opacity="0"/></radialGradient><radialGradient id="radial-gradient-8" gradientTransform="translate(417.52 306.34) scale(2.39 2.52)" xlink:href="#radial-gradient-7"/><radialGradient id="radial-gradient-9" gradientTransform="matrix(2.44, 0.83, 0.64, -2.12, 418.36, 290.74)" xlink:href="#radial-gradient-7"/><linearGradient id="linear-gradient-25" x2="1" gradientTransform="matrix(10.59, -1.75, -1.66, -11.18, 408.62, 304.75)" gradientUnits="userSpaceOnUse"><stop offset="0" stop-color="#341000"/><stop offset="0.16" stop-color="#341000" stop-opacity="0"/><stop offset="0.92" stop-color="#341000" stop-opacity="0.5"/><stop offset="0.95" stop-color="#fcdf00"/><stop offset="1" stop-color="#fcdf00"/></linearGradient><linearGradient id="linear-gradient-26" gradientTransform="matrix(0, 5.67, 5.37, 0, 396.59, 287.39)" xlink:href="#linear-gradient-23"/><linearGradient id="linear-gradient-27" x2="1" gradientTransform="matrix(4.72, -3.62, -3.43, -4.98, 414.8, 290.4)" gradientUnits="userSpaceOnUse"><stop offset="0" stop-color="#341000" stop-opacity="0"/><stop offset="0.8" stop-color="#341000" stop-opacity="0"/><stop offset="0.91" stop-color="#fcdf00"/><stop offset="1" stop-color="#fcdf00"/></linearGradient><radialGradient id="radial-gradient-10" cx="0" cy="0" r="1" gradientTransform="matrix(2.51, 0.25, -0.19, 2.13, 403.88, 288.49)" gradientUnits="userSpaceOnUse"><stop offset="0" stop-color="#fff" stop-opacity="0.85"/><stop offset="0.68" stop-color="#fff" stop-opacity="0.5"/><stop offset="1" stop-color="#fff" stop-opacity="0"/></radialGradient><linearGradient id="linear-gradient-28" x2="1" gradientTransform="matrix(0, -5.81, -5.51, 0, 396.59, 323.37)" gradientUnits="userSpaceOnUse"><stop offset="0" stop-color="#341000"/><stop offset="0.2" stop-color="#341000"/><stop offset="0.39" stop-color="#341000" stop-opacity="0.5"/><stop offset="0.56" stop-color="#341000"/><stop offset="0.71" stop-color="#341000" stop-opacity="0.5"/><stop offset="0.8" stop-color="#341000" stop-opacity="0"/><stop offset="0.96" stop-color="#fcdf00"/><stop offset="1" stop-color="#fcdf00"/></linearGradient><linearGradient id="linear-gradient-29" x2="1" gradientTransform="matrix(8.27, -5.33, -5.05, -8.73, 416.41, 322)" gradientUnits="userSpaceOnUse"><stop offset="0" stop-color="#341000"/><stop offset="0.19" stop-color="#341000"/><stop offset="0.57" stop-color="#fcdf00"/><stop offset="1" stop-color="#fcdf00"/></linearGradient><radialGradient id="radial-gradient-11" cx="0" cy="0" r="1" gradientTransform="translate(405.04 324.47) scale(4.58 2.66)" gradientUnits="userSpaceOnUse"><stop offset="0" stop-color="#fff" stop-opacity="0.85"/><stop offset="0.37" stop-color="#fff" stop-opacity="0.9"/><stop offset="1" stop-color="#fff" stop-opacity="0"/></radialGradient><radialGradient id="radial-gradient-12" gradientTransform="matrix(0, 18.15, 0.73, 0, 406.5, 305.64)" xlink:href="#radial-gradient-6"/><radialGradient id="radial-gradient-13" gradientTransform="translate(406.43 305.49) rotate(90) scale(55.71 0.37)" xlink:href="#radial-gradient-5"/><radialGradient id="radial-gradient-14" gradientTransform="translate(413.2 304.44) scale(5.71 0.3)" xlink:href="#radial-gradient-6"/><radialGradient id="radial-gradient-15" gradientTransform="translate(412.93 304.56) scale(6.27 0.19)" xlink:href="#radial-gradient-5"/><radialGradient id="radial-gradient-16" gradientTransform="matrix(9.92, 0.24, -0.01, 0.25, 413.79, 288.76)" xlink:href="#radial-gradient-6"/><radialGradient id="radial-gradient-17" gradientTransform="matrix(7.13, 0.15, 0, -0.17, 411.31, 288.8)" xlink:href="#radial-gradient-5"/><linearGradient id="linear-gradient-30" x2="1" gradientTransform="matrix(5.15, 0, 0, -5.44, 424.15, 276.13)" gradientUnits="userSpaceOnUse"><stop offset="0" stop-color="#fcdf00"/><stop offset="0.65" stop-color="#fcdf00"/><stop offset="1" stop-color="#fcdf00"/></linearGradient><linearGradient id="linear-gradient-31" x2="1" gradientTransform="matrix(-26.04, 0, 0, 27.49, 438.58, 276.13)" gradientUnits="userSpaceOnUse"><stop offset="0" stop-color="#fcdf00"/><stop offset="0.44" stop-color="#fcdf00"/><stop offset="0.95" stop-color="#663411"/><stop offset="1" stop-color="#663411"/></linearGradient><linearGradient id="linear-gradient-32" x2="1" gradientTransform="matrix(12.58, 0, 0, -13.28, 440.46, 276.13)" gradientUnits="userSpaceOnUse"><stop offset="0" stop-color="#fcdf00"/><stop offset="0.85" stop-color="#fcdf00"/><stop offset="0.93" stop-color="#fcdf00"/><stop offset="1" stop-color="#fcdf00"/></linearGradient><linearGradient id="linear-gradient-33" x2="1" gradientTransform="matrix(-12.8, 0, 0, 13.52, 455.93, 276.13)" gradientUnits="userSpaceOnUse"><stop offset="0" stop-color="#fcdf00"/><stop offset="0.25" stop-color="#663411"/><stop offset="1" stop-color="#663411"/></linearGradient><linearGradient id="linear-gradient-34" x2="1" gradientTransform="matrix(1.47, -3.19, -3.02, -1.56, 448, 294.97)" gradientUnits="userSpaceOnUse"><stop offset="0" stop-color="#663411"/><stop offset="0.42" stop-color="#663411"/><stop offset="0.87" stop-color="#fcdf00"/><stop offset="1" stop-color="#fcdf00"/></linearGradient><linearGradient id="linear-gradient-35" x2="1" gradientTransform="matrix(8.69, 33.78, 31.99, -9.17, 432.64, 289.76)" gradientUnits="userSpaceOnUse"><stop offset="0" stop-color="#fcdf00"/><stop offset="0.04" stop-color="#fcdf00"/><stop offset="0.93" stop-color="#fcdf00"/><stop offset="0.99" stop-color="#663411"/><stop offset="1" stop-color="#663411"/></linearGradient><linearGradient id="linear-gradient-36" x2="1" gradientTransform="matrix(0, 31.62, 29.95, 0, 423.9, 289.29)" gradientUnits="userSpaceOnUse"><stop offset="0" stop-color="#fcdf00"/><stop offset="0.02" stop-color="#fcdf00"/><stop offset="0.09" stop-color="#fccf00" stop-opacity="0.8"/><stop offset="0.39" stop-color="#fcc100" stop-opacity="0.5"/><stop offset="0.5" stop-color="#fccf00" stop-opacity="0.2"/><stop offset="0.65" stop-color="#fcc100" stop-opacity="0.5"/><stop offset="0.89" stop-color="#fccf00" stop-opacity="0.5"/><stop offset="0.99" stop-color="#fcde00" stop-opacity="0.98"/><stop offset="0.99" stop-color="#fcdf00"/><stop offset="1" stop-color="#fcdf00"/></linearGradient><linearGradient id="linear-gradient-37" x2="1" gradientTransform="matrix(0, 31.83, 30.15, 0, 423.9, 289.07)" gradientUnits="userSpaceOnUse"><stop offset="0" stop-color="#341000" stop-opacity="0"/><stop offset="0.03" stop-color="#341000" stop-opacity="0"/><stop offset="0.14" stop-color="#341000" stop-opacity="0.2"/><stop offset="0.34" stop-color="#341000" stop-opacity="0.5"/><stop offset="0.63" stop-color="#341000" stop-opacity="0.2"/><stop offset="0.86" stop-color="#341000" stop-opacity="0.5"/><stop offset="0.99" stop-color="#341000" stop-opacity="0"/><stop offset="1" stop-color="#341000" stop-opacity="0"/></linearGradient><linearGradient id="linear-gradient-38" x2="1" gradientTransform="matrix(-28.48, 0, 0, 30.07, 454.45, 276.13)" gradientUnits="userSpaceOnUse"><stop offset="0" stop-color="#fcdf00"/><stop offset="0.04" stop-color="#fcdf00"/><stop offset="0.06" stop-color="#341000" stop-opacity="0.2"/><stop offset="0.34" stop-color="#341000" stop-opacity="0.5"/><stop offset="0.63" stop-color="#341000" stop-opacity="0.2"/><stop offset="0.81" stop-color="#341000" stop-opacity="0.5"/><stop offset="0.94" stop-color="#341000" stop-opacity="0"/><stop offset="0.99" stop-color="#fcdf00"/><stop offset="1" stop-color="#fcdf00"/></linearGradient><linearGradient id="linear-gradient-39" x2="1" gradientTransform="matrix(-10.51, 0, 0, 11.1, 438.58, 276.13)" gradientUnits="userSpaceOnUse"><stop offset="0" stop-color="#fcdf00"/><stop offset="0.08" stop-color="#fcdf00"/><stop offset="0.32" stop-color="#fccf00" stop-opacity="0.8"/><stop offset="0.59" stop-color="#fccf00" stop-opacity="0.2"/><stop offset="0.81" stop-color="#fccf00" stop-opacity="0.5"/><stop offset="0.99" stop-color="#fcde00" stop-opacity="0.98"/><stop offset="0.99" stop-color="#fcdf00"/><stop offset="1" stop-color="#fcdf00"/></linearGradient><linearGradient id="linear-gradient-40" x2="1" gradientTransform="matrix(10.37, 0, 0, -10.95, 440.46, 276.13)" gradientUnits="userSpaceOnUse"><stop offset="0" stop-color="#fcdf00"/><stop offset="0.02" stop-color="#fcdf00"/><stop offset="0.15" stop-color="#fccf00" stop-opacity="0.8"/><stop offset="0.45" stop-color="#fccf00" stop-opacity="0.2"/><stop offset="0.81" stop-color="#fccf00" stop-opacity="0.5"/><stop offset="0.99" stop-color="#fcde00" stop-opacity="0.98"/><stop offset="0.99" stop-color="#fcdf00"/><stop offset="1" stop-color="#fcdf00"/></linearGradient><linearGradient id="linear-gradient-41" x2="1" gradientTransform="matrix(-2.72, -3.15, -2.98, 2.87, 444.38, 324.34)" gradientUnits="userSpaceOnUse"><stop offset="0" stop-color="#fcdf00"/><stop offset="0.05" stop-color="#fcdf00"/><stop offset="0.3" stop-color="#341000" stop-opacity="0"/><stop offset="0.42" stop-color="#341000"/><stop offset="0.76" stop-color="#341000" stop-opacity="0.5"/><stop offset="0.98" stop-color="#341000" stop-opacity="0"/><stop offset="1" stop-color="#341000" stop-opacity="0"/></linearGradient><radialGradient id="radial-gradient-18" cx="0" cy="0" r="1" gradientTransform="translate(440.82 289.52) scale(1.81 1.91)" gradientUnits="userSpaceOnUse"><stop offset="0" stop-color="#fff" stop-opacity="0.85"/><stop offset="0.52" stop-color="#fff" stop-opacity="0.5"/><stop offset="1" stop-color="#fff" stop-opacity="0"/></radialGradient><radialGradient id="radial-gradient-19" gradientTransform="translate(452.62 290.64) scale(1.65 1.74)" xlink:href="#radial-gradient-18"/><linearGradient id="linear-gradient-42" x2="1" gradientTransform="matrix(0, 5.38, 5.09, 0, 423.9, 287.59)" gradientUnits="userSpaceOnUse"><stop offset="0" stop-color="#fcdf00"/><stop offset="0.03" stop-color="#fcdf00"/><stop offset="0.18" stop-color="#341000" stop-opacity="0.5"/><stop offset="0.42" stop-color="#341000"/><stop offset="0.56" stop-color="#341000"/><stop offset="0.66" stop-color="#341000" stop-opacity="0.5"/><stop offset="0.8" stop-color="#341000" stop-opacity="0"/><stop offset="1" stop-color="#fcdf00"/></linearGradient><linearGradient id="linear-gradient-43" x2="1" gradientTransform="matrix(0, 2.66, 2.52, 0, 423.9, 290.3)" gradientUnits="userSpaceOnUse"><stop offset="0" stop-color="#fcdf00" stop-opacity="0"/><stop offset="0.46" stop-color="#fcdf00" stop-opacity="0"/><stop offset="0.92" stop-color="#663411"/><stop offset="1" stop-color="#663411"/></linearGradient><linearGradient id="linear-gradient-44" x2="1" gradientTransform="matrix(0, 0.71, 0.67, 0, 423.9, 292.19)" gradientUnits="userSpaceOnUse"><stop offset="0" stop-color="#fcdf00" stop-opacity="0"/><stop offset="0.09" stop-color="#fcdf00" stop-opacity="0"/><stop offset="0.9" stop-color="#663411"/><stop offset="1" stop-color="#663411"/></linearGradient><radialGradient id="radial-gradient-20" gradientTransform="matrix(1.46, 1.14, -1.02, 1.46, 163.7, 20.4)" xlink:href="#radial-gradient-18"/><radialGradient id="radial-gradient-21" gradientTransform="matrix(3.54, 0, 0, -2.7, 438.39, 324.48)" xlink:href="#radial-gradient-10"/><radialGradient id="radial-gradient-22" cx="0" cy="0" r="1" gradientTransform="translate(425.48 288.8) scale(1.42 1.5)" gradientUnits="userSpaceOnUse"><stop offset="0" stop-color="#fff" stop-opacity="0.85"/><stop offset="0.52" stop-color="#fff" stop-opacity="0.5"/><stop offset="1" stop-color="#fff" stop-opacity="0"/></radialGradient><radialGradient id="radial-gradient-23" gradientTransform="translate(439.52 304.93) rotate(90) scale(23.66 0.38)" xlink:href="#radial-gradient-6"/><radialGradient id="radial-gradient-24" gradientTransform="translate(433.08 288.86) scale(6.4 0.18)" xlink:href="#radial-gradient-6"/><radialGradient id="radial-gradient-25" gradientTransform="matrix(7.09, 0.09, 0, 0.16, 446.17, 288.92)" xlink:href="#radial-gradient-6"/><radialGradient id="radial-gradient-26" gradientTransform="translate(432.04 288.87) scale(19.08 0.27)" xlink:href="#radial-gradient-5"/><radialGradient id="radial-gradient-27" gradientTransform="translate(439.52 306.14) rotate(90) scale(75.8 0.5)" xlink:href="#radial-gradient-5"/><radialGradient id="radial-gradient-28" gradientTransform="translate(446.6 288.92) scale(25.11 0.25)" xlink:href="#radial-gradient-5"/><linearGradient id="linear-gradient-45" x2="1" gradientTransform="matrix(1.38, 0, 0, -1.46, 473.29, 276.13)" gradientUnits="userSpaceOnUse"><stop offset="0" stop-color="#fcdf00"/><stop offset="0.93" stop-color="#fcdf00"/><stop offset="1" stop-color="#fcdf00"/></linearGradient><linearGradient id="linear-gradient-46" x2="1" gradientTransform="matrix(4.84, -33.01, -31.26, -5.11, 481.14, 322.4)" gradientUnits="userSpaceOnUse"><stop offset="0" stop-color="#fcdf00"/><stop offset="0.01" stop-color="#fcdf00"/><stop offset="0.26" stop-color="#663411"/><stop offset="0.82" stop-color="#663411"/><stop offset="0.99" stop-color="#fcdf00"/><stop offset="1" stop-color="#fcdf00"/></linearGradient><linearGradient id="linear-gradient-47" x2="1" gradientTransform="matrix(7.55, -27.28, -25.84, -7.97, 478.61, 318.19)" gradientUnits="userSpaceOnUse"><stop offset="0" stop-color="#663411"/><stop offset="0.02" stop-color="#663411"/><stop offset="0.35" stop-color="#fcdf00"/><stop offset="0.68" stop-color="#fcdf00"/><stop offset="0.98" stop-color="#663411"/><stop offset="1" stop-color="#663411"/></linearGradient><radialGradient id="radial-gradient-29" cx="0" cy="0" r="1" gradientTransform="matrix(1.3, -0.26, 0.41, 2.28, 489.68, 291.33)" gradientUnits="userSpaceOnUse"><stop offset="0" stop-color="#fff" stop-opacity="0.85"/><stop offset="0.73" stop-color="#fff" stop-opacity="0.5"/><stop offset="1" stop-color="#fff" stop-opacity="0"/></radialGradient><radialGradient id="radial-gradient-30" cx="0" cy="0" r="1" gradientTransform="matrix(3.07, 1.62, -0.91, 1.92, 475.45, 321.46)" gradientUnits="userSpaceOnUse"><stop offset="0" stop-color="#fff" stop-opacity="0.85"/><stop offset="0.71" stop-color="#fff" stop-opacity="0.5"/><stop offset="1" stop-color="#fff" stop-opacity="0"/></radialGradient><radialGradient id="radial-gradient-31" gradientTransform="translate(483.62 304.17) scale(5.18 5.47)" xlink:href="#radial-gradient-2"/><linearGradient id="linear-gradient-48" x2="1" gradientTransform="matrix(-3.97, -6.15, 6.36, -3.84, 490.65, 293.23)" gradientUnits="userSpaceOnUse"><stop offset="0" stop-color="#fcdf00"/><stop offset="0.01" stop-color="#fcdf00"/><stop offset="0.13" stop-color="#341000" stop-opacity="0"/><stop offset="0.29" stop-color="#341000"/><stop offset="0.8" stop-color="#341000" stop-opacity="0.5"/><stop offset="1" stop-color="#341000" stop-opacity="0"/></linearGradient><radialGradient id="radial-gradient-32" cx="0" cy="0" r="1" gradientTransform="translate(482.27 305.62) scale(4.75 5.01)" gradientUnits="userSpaceOnUse"><stop offset="0" stop-color="#fff" stop-opacity="0.85"/><stop offset="0.46" stop-color="#fff" stop-opacity="0.5"/><stop offset="1" stop-color="#fff" stop-opacity="0"/></radialGradient><linearGradient id="linear-gradient-49" x2="1" gradientTransform="matrix(3.3, 6.47, 6.13, -3.48, 474.73, 315.98)" gradientUnits="userSpaceOnUse"><stop offset="0" stop-color="#fcdf00"/><stop offset="0.11" stop-color="#341000"/><stop offset="0.54" stop-color="#341000" stop-opacity="0.5"/><stop offset="1" stop-color="#341000" stop-opacity="0"/></linearGradient><linearGradient id="linear-gradient-50" gradientTransform="matrix(13.43, 0, 0, -14.18, 505.99, 276.13)" xlink:href="#linear-gradient-12"/><linearGradient id="linear-gradient-51" gradientTransform="matrix(9.95, 0, 0, -10.51, 505.96, 276.13)" xlink:href="#linear-gradient-13"/><linearGradient id="linear-gradient-52" gradientTransform="matrix(7.33, 33.42, 31.65, -7.73, 497.77, 290.07)" xlink:href="#linear-gradient-14"/><linearGradient id="linear-gradient-53" gradientTransform="matrix(-13.58, 0, 0, 14.34, 517.27, 276.13)" xlink:href="#linear-gradient-15"/><linearGradient id="linear-gradient-54" gradientTransform="matrix(21.21, 0, 0, -22.4, 498.34, 276.13)" xlink:href="#linear-gradient-16"/><linearGradient id="linear-gradient-55" gradientTransform="matrix(8.27, -5.33, -5.05, -8.73, 513.96, 322)" xlink:href="#linear-gradient-17"/><linearGradient id="linear-gradient-56" gradientTransform="matrix(11.25, 0, 0, -11.88, 505, 276.13)" xlink:href="#linear-gradient-18"/><linearGradient id="linear-gradient-57" gradientTransform="matrix(3.28, -2.46, -2.33, -3.46, 512.75, 304.1)" xlink:href="#linear-gradient-19"/><linearGradient id="linear-gradient-58" gradientTransform="matrix(0, 27.74, 26.27, 0, 494.13, 291.17)" xlink:href="#linear-gradient-20"/><linearGradient id="linear-gradient-59" gradientTransform="matrix(6.75, 33.06, 31.31, -7.13, 503.39, 289.48)" xlink:href="#linear-gradient-21"/><linearGradient id="linear-gradient-60" gradientTransform="matrix(21.21, 0, 0, -22.4, 498.34, 276.13)" xlink:href="#linear-gradient-22"/><linearGradient id="linear-gradient-61" gradientTransform="matrix(0, 5.93, 5.62, 0, 494.13, 302.59)" xlink:href="#linear-gradient-23"/><radialGradient id="radial-gradient-33" gradientTransform="translate(505.38 305) scale(4.05 4.27)" xlink:href="#radial-gradient-7"/><radialGradient id="radial-gradient-34" gradientTransform="translate(515.06 306.34) scale(2.39 2.52)" xlink:href="#radial-gradient-7"/><radialGradient id="radial-gradient-35" gradientTransform="matrix(2.44, 0.83, 0.64, -2.12, 515.9, 290.74)" xlink:href="#radial-gradient-7"/><linearGradient id="linear-gradient-63" gradientTransform="matrix(10.59, -1.75, -1.66, -11.18, 506.17, 304.75)" xlink:href="#linear-gradient-25"/><linearGradient id="linear-gradient-64" gradientTransform="matrix(0, 5.67, 5.37, 0, 494.13, 287.39)" xlink:href="#linear-gradient-23"/><linearGradient id="linear-gradient-65" gradientTransform="matrix(4.72, -3.62, -3.43, -4.98, 512.34, 290.4)" xlink:href="#linear-gradient-27"/><radialGradient id="radial-gradient-36" gradientTransform="matrix(2.51, 0.25, -0.19, 2.13, 501.42, 288.49)" xlink:href="#radial-gradient-10"/><linearGradient id="linear-gradient-66" gradientTransform="matrix(0, -5.81, -5.51, 0, 494.13, 323.37)" xlink:href="#linear-gradient-28"/><linearGradient id="linear-gradient-67" gradientTransform="matrix(8.27, -5.33, -5.05, -8.73, 513.96, 322)" xlink:href="#linear-gradient-29"/><radialGradient id="radial-gradient-37" gradientTransform="translate(502.58 324.47) scale(4.58 2.66)" xlink:href="#radial-gradient-11"/><radialGradient id="radial-gradient-38" gradientTransform="matrix(0, 18.15, 0.73, 0, 504.04, 305.64)" xlink:href="#radial-gradient-6"/><radialGradient id="radial-gradient-39" gradientTransform="translate(503.97 305.49) rotate(90) scale(55.71 0.37)" xlink:href="#radial-gradient-5"/><radialGradient id="radial-gradient-40" gradientTransform="translate(510.74 304.44) scale(5.71 0.3)" xlink:href="#radial-gradient-6"/><radialGradient id="radial-gradient-41" gradientTransform="translate(510.47 304.56) scale(6.27 0.19)" xlink:href="#radial-gradient-5"/><radialGradient id="radial-gradient-42" gradientTransform="matrix(9.92, 0.24, -0.01, 0.25, 511.34, 288.76)" xlink:href="#radial-gradient-6"/><radialGradient id="radial-gradient-43" gradientTransform="matrix(7.13, 0.15, 0, -0.17, 508.85, 288.8)" xlink:href="#radial-gradient-5"/><linearGradient id="linear-gradient-68" gradientTransform="matrix(5.15, 0, 0, -5.44, 521.69, 276.13)" xlink:href="#linear-gradient-30"/><linearGradient id="linear-gradient-69" gradientTransform="matrix(-26.04, 0, 0, 27.49, 536.12, 276.13)" xlink:href="#linear-gradient-31"/><linearGradient id="linear-gradient-70" gradientTransform="matrix(12.58, 0, 0, -13.28, 538, 276.13)" xlink:href="#linear-gradient-32"/><linearGradient id="linear-gradient-71" gradientTransform="matrix(-12.8, 0, 0, 13.52, 553.47, 276.13)" xlink:href="#linear-gradient-33"/><linearGradient id="linear-gradient-72" gradientTransform="matrix(1.47, -3.19, -3.02, -1.56, 545.54, 294.97)" xlink:href="#linear-gradient-34"/><linearGradient id="linear-gradient-73" gradientTransform="matrix(8.69, 33.78, 31.99, -9.17, 530.18, 289.76)" xlink:href="#linear-gradient-35"/><linearGradient id="linear-gradient-74" gradientTransform="matrix(0, 31.62, 29.95, 0, 521.44, 289.29)" xlink:href="#linear-gradient-36"/><linearGradient id="linear-gradient-75" gradientTransform="matrix(0, 31.83, 30.15, 0, 521.44, 289.07)" xlink:href="#linear-gradient-37"/><linearGradient id="linear-gradient-76" gradientTransform="matrix(-28.48, 0, 0, 30.07, 552, 276.13)" xlink:href="#linear-gradient-38"/><linearGradient id="linear-gradient-77" gradientTransform="matrix(-10.51, 0, 0, 11.1, 536.12, 276.13)" xlink:href="#linear-gradient-39"/><linearGradient id="linear-gradient-78" gradientTransform="matrix(10.37, 0, 0, -10.95, 538, 276.13)" xlink:href="#linear-gradient-40"/><linearGradient id="linear-gradient-79" gradientTransform="matrix(-2.72, -3.15, -2.98, 2.87, 541.93, 324.34)" xlink:href="#linear-gradient-41"/><radialGradient id="radial-gradient-44" gradientTransform="translate(538.37 289.52) scale(1.81 1.91)" xlink:href="#radial-gradient-18"/><radialGradient id="radial-gradient-45" gradientTransform="translate(550.16 290.64) scale(1.65 1.74)" xlink:href="#radial-gradient-18"/><linearGradient id="linear-gradient-80" gradientTransform="matrix(0, 5.38, 5.09, 0, 521.44, 287.59)" xlink:href="#linear-gradient-42"/><linearGradient id="linear-gradient-81" gradientTransform="matrix(0, 2.66, 2.52, 0, 521.44, 290.3)" xlink:href="#linear-gradient-43"/><linearGradient id="linear-gradient-82" gradientTransform="matrix(0, 0.71, 0.67, 0, 521.44, 292.19)" xlink:href="#linear-gradient-44"/><radialGradient id="radial-gradient-46" gradientTransform="matrix(1.46, 1.14, -1.02, 1.46, 261.24, 20.4)" xlink:href="#radial-gradient-18"/><radialGradient id="radial-gradient-47" gradientTransform="matrix(3.54, 0, 0, -2.7, 535.93, 324.48)" xlink:href="#radial-gradient-10"/><radialGradient id="radial-gradient-48" gradientTransform="translate(523.03 288.8) scale(1.42 1.5)" xlink:href="#radial-gradient-22"/><radialGradient id="radial-gradient-49" gradientTransform="translate(537.06 304.93) rotate(90) scale(23.66 0.38)" xlink:href="#radial-gradient-6"/><radialGradient id="radial-gradient-50" gradientTransform="translate(530.62 288.86) scale(6.4 0.18)" xlink:href="#radial-gradient-6"/><radialGradient id="radial-gradient-51" gradientTransform="matrix(7.09, 0.09, 0, 0.16, 543.71, 288.92)" xlink:href="#radial-gradient-6"/><radialGradient id="radial-gradient-52" gradientTransform="translate(529.58 288.87) scale(19.08 0.27)" xlink:href="#radial-gradient-5"/><radialGradient id="radial-gradient-53" gradientTransform="translate(537.06 306.14) rotate(90) scale(75.8 0.5)" xlink:href="#radial-gradient-5"/><radialGradient id="radial-gradient-54" gradientTransform="translate(544.14 288.92) scale(25.11 0.25)" xlink:href="#radial-gradient-5"/><linearGradient id="linear-gradient-83" gradientTransform="matrix(-1.83, 15.06, 14.27, 1.94, 595.99, 306.74)" xlink:href="#linear-gradient"/><linearGradient id="linear-gradient-84" gradientTransform="matrix(11.2, -34.82, -32.98, -11.82, 581.18, 323.01)" xlink:href="#linear-gradient-2"/><linearGradient id="linear-gradient-85" gradientTransform="matrix(30.82, -75.57, -71.58, -32.54, 581.56, 357.42)" xlink:href="#linear-gradient-3"/><linearGradient id="linear-gradient-86" gradientTransform="matrix(14.05, -34.11, -32.31, -14.83, 578.75, 322.3)" xlink:href="#linear-gradient-4"/><linearGradient id="linear-gradient-87" gradientTransform="matrix(-11.41, 0, 0, 12.04, 607.57, 276.13)" xlink:href="#linear-gradient-5"/><linearGradient id="linear-gradient-88" gradientTransform="matrix(0, 12.71, 12.04, 0, 566.92, 308.11)" xlink:href="#linear-gradient-6"/><linearGradient id="linear-gradient-89" gradientTransform="matrix(2.16, -14.29, -13.53, -2.29, 598.02, 320.96)" xlink:href="#linear-gradient-7"/><linearGradient id="linear-gradient-90" gradientTransform="matrix(1.58, -1.51, -1.43, -1.67, 600.77, 306.94)" xlink:href="#linear-gradient-8"/><radialGradient id="radial-gradient-55" gradientTransform="matrix(1.73, 0.44, -0.32, 1.4, 595.67, 306.48)" xlink:href="#radial-gradient"/><linearGradient id="linear-gradient-91" gradientTransform="matrix(10.87, 0, 0, -11.48, 592.26, 276.13)" xlink:href="#linear-gradient-9"/><linearGradient id="linear-gradient-92" gradientTransform="matrix(11.2, -34.82, -32.98, -11.82, 592.25, 326.97)" xlink:href="#linear-gradient-2"/><radialGradient id="radial-gradient-56" gradientTransform="matrix(4.94, 1.13, -0.79, 3.85, 581.18, 321.73)" xlink:href="#radial-gradient-2"/><radialGradient id="radial-gradient-57" gradientTransform="translate(579.34 320.28) scale(3.85 4.06)" xlink:href="#radial-gradient-3"/><radialGradient id="radial-gradient-58" gradientTransform="translate(599.31 292.21) scale(2.82 2.98)" xlink:href="#radial-gradient-4"/><linearGradient id="linear-gradient-93" gradientTransform="matrix(-4.04, -6.74, -6.38, 4.26, 601.48, 294.86)" xlink:href="#linear-gradient-11"/><radialGradient id="radial-gradient-59" gradientTransform="translate(598.09 313.96) rotate(90) scale(24.74 0.51)" xlink:href="#radial-gradient-5"/><radialGradient id="radial-gradient-60" gradientTransform="translate(598.12 313.53) rotate(90) scale(10.03 0.39)" xlink:href="#radial-gradient-6"/><linearGradient id="linear-gradient-94" x2="1" gradientTransform="matrix(15.63, -32.64, -30.92, -16.51, 618.12, 322.01)" gradientUnits="userSpaceOnUse"><stop offset="0" stop-color="#fcdf00"/><stop offset="0.11" stop-color="#fcdf00"/><stop offset="0.86" stop-color="#663411"/><stop offset="1" stop-color="#663411"/></linearGradient><linearGradient id="linear-gradient-95" x2="1" gradientTransform="matrix(15.74, -30.93, -29.29, -16.62, 618.22, 320.97)" gradientUnits="userSpaceOnUse"><stop offset="0" stop-color="#663411"/><stop offset="0.19" stop-color="#663411"/><stop offset="0.85" stop-color="#fcdf00"/><stop offset="1" stop-color="#fcdf00"/></linearGradient><radialGradient id="radial-gradient-61" cx="0" cy="0" r="1" gradientTransform="translate(620.75 322.46) scale(6.1 6.44)" gradientUnits="userSpaceOnUse"><stop offset="0" stop-color="#fff" stop-opacity="0.85"/><stop offset="0.4" stop-color="#fff" stop-opacity="0.5"/><stop offset="1" stop-color="#fff" stop-opacity="0"/></radialGradient><radialGradient id="radial-gradient-62" cx="0" cy="0" r="1" gradientTransform="translate(634.8 291.26) scale(5.76 6.08)" gradientUnits="userSpaceOnUse"><stop offset="0" stop-color="#341000"/><stop offset="0.49" stop-color="#341000" stop-opacity="0.5"/><stop offset="1" stop-color="#341000" stop-opacity="0"/></radialGradient><radialGradient id="radial-gradient-63" gradientTransform="translate(634.16 290.98) scale(5.91 6.24)" xlink:href="#radial-gradient-61"/><radialGradient id="radial-gradient-64" cx="0" cy="0" r="1" gradientTransform="matrix(5.51, 1.65, -1.2, 4.45, 619.14, 321.89)" gradientUnits="userSpaceOnUse"><stop offset="0" stop-color="#341000"/><stop offset="0.44" stop-color="#341000" stop-opacity="0.5"/><stop offset="1" stop-color="#341000" stop-opacity="0"/></radialGradient></defs><polygon class="cls-1" points="60.49 64.16 40.05 55.73 21.52 67.81 23.21 45.76 6 31.86 27.49 26.66 35.39 6 46.98 24.83 69.07 25.96 54.74 42.8 60.49 64.16"/><path class="cls-2" d="M380.92,324.17c-6.13,0-11.08-1.7-14.71-5.05a16,16,0,0,1-3.68-5.45,21.08,21.08,0,0,1,.6-17.61,15.93,15.93,0,0,1,5.22-5.92c4-2.64,8.47-3,11.9-3a36.78,36.78,0,0,1,6.84.8,23,23,0,0,0,3.86.52c.25,0,.29.18.29.36s0,.29-.05.49a38.92,38.92,0,0,0-.27,5.51c0,.94-.18,1-.2,1s-.12-.32-.15-.83c0,0,0-.09,0-.15a6.11,6.11,0,0,0-.39-1.89c-.45-1.07-1.82-2.08-3.87-2.84a22,22,0,0,0-7.52-1.24,13.78,13.78,0,0,0-9.59,3.13c-2.78,2.33-4.44,6.82-4.44,12a20.83,20.83,0,0,0,1.78,8.45,16.24,16.24,0,0,0,3,4.66,15.87,15.87,0,0,0,11.74,5.06c1.09,0,3.79-.11,5.47-1.18a1,1,0,0,0,.53-1v-8.55c0-3.73-.08-5-1.89-5.27l-.22,0a10.48,10.48,0,0,0-1.2-.08c-.47,0-.56-.06-.56-.11s.18-.17.69-.17c1.51,0,3.5.08,4.46.12l.6,0,.75,0c1,0,2.69-.11,3.64-.11.5,0,.69.1.69.17s-.16.11-.47.11a5,5,0,0,0-1.17.1c-1.18.26-1.42,1.64-1.5,3.09s-.1,2.94-.1,4.92v5.58c0,1.84,0,1.92-.56,2.24a20.89,20.89,0,0,1-9.47,2.13" transform="translate(-275.51 -268.84)"/><path class="cls-3" d="M387.05,288.91l.09,0v-1l-.09,0v1" transform="translate(-275.51 -268.84)"/><path class="cls-3" d="M387.19,306.6a10.49,10.49,0,0,1,2,1.48,8.92,8.92,0,0,1,1.85-1.5c.94-.59,1.66-.6,3.2-.6,0-.09-.24-.17-.71-.17-1.34,0-4.16.14-4.39.14s-3-.14-5.06-.14c-.51,0-.69.08-.71.17,1.7,0,2.81,0,3.85.62" transform="translate(-275.51 -268.84)"/><path class="cls-3" d="M390.75,295.83c.08,0,.2-.25.2-1a42.81,42.81,0,0,1,.31-6,.61.61,0,0,0,0-.24,16.6,16.6,0,0,1-1.67,1.34,11.42,11.42,0,0,1,1.2,5.89" transform="translate(-275.51 -268.84)"/><path class="cls-4" d="M387.19,306.6c-1-.64-2.15-.62-3.85-.62v0c0,.09.18.14.58.14a12.3,12.3,0,0,1,1.43.09c1.75.24,1.88,1.42,1.88,5.25V320a1,1,0,0,1-.17.61l2.1.45v-13a10.49,10.49,0,0,0-2-1.48" transform="translate(-275.51 -268.84)"/><path class="cls-5" d="M363,304.91c0,11.67,8.46,18.32,18,18.32,3.66,0,5.94-.62,8.17-2.14l-2.1-.45a1.7,1.7,0,0,1-.36.34,11.18,11.18,0,0,1-5.47,1.18,15.84,15.84,0,0,1-11.72-5.06A19.81,19.81,0,0,1,364.76,304c0-5.53,1.84-9.83,4.43-12a13.75,13.75,0,0,1,9.58-3.12c5.78,0,10.48,1.93,11.37,4.06a6.47,6.47,0,0,1,.4,2c0,.67.09.85.18.85h0a11.42,11.42,0,0,0-1.2-5.89c-2.32-1.19-5.35-2-10.19-2-11.51,0-16.35,7.38-16.35,16.93" transform="translate(-275.51 -268.84)"/><path class="cls-6" d="M394.21,306c-1.54,0-2.26,0-3.2.6a8.92,8.92,0,0,0-1.85,1.5v13h0a11.66,11.66,0,0,1-2.72,1.39l.56.92a15,15,0,0,0,3.41-1.33,1.12,1.12,0,0,0,.42-.38,5,5,0,0,0,.16-1.89v-5.58c0-2,0-3.4.09-4.92s.4-2.83,1.48-3.07a5.49,5.49,0,0,1,1.16-.09c.27,0,.5-.05.5-.14v0" transform="translate(-275.51 -268.84)"/><path class="cls-7" d="M380.25,287.14c-3.45,0-7.88.33-11.91,3s-7.47,8-7.47,15.54c0,5.91,2.59,11,5.32,13.47,5,4.59,11.33,5.06,14.73,5.06a24.45,24.45,0,0,0,6.08-.79l-.56-.92a16.44,16.44,0,0,1-5.45.75c-9.51,0-18-6.65-18-18.32,0-9.55,4.84-16.93,16.35-16.93a26.09,26.09,0,0,1,7.74,1v-1a36.4,36.4,0,0,0-6.85-.8" transform="translate(-275.51 -268.84)"/><path class="cls-8" d="M389.55,289.93a15.14,15.14,0,0,0,1.67-1.33.29.29,0,0,0-.27-.14,22.84,22.84,0,0,1-3.85-.52v1a15.44,15.44,0,0,1,2.45,1h0" transform="translate(-275.51 -268.84)"/><path class="cls-9" d="M387.1,308.2a25.84,25.84,0,0,1,.13,3.28V320a1,1,0,0,1-.17.61l2.1.45V308.2H387.1" transform="translate(-275.51 -268.84)"/><path class="cls-10" d="M391,314.22c0-2,0-3.4.09-4.92a6.82,6.82,0,0,1,.32-1.94l-.95-.4a7.33,7.33,0,0,0-1.29,1.12v12.73l1.76.64a10.11,10.11,0,0,0,.07-1.65v-5.58" transform="translate(-275.51 -268.84)"/><path class="cls-11" d="M394.21,306c-1.54,0-2.26,0-3.2.6l-.56.38.95.4a1.61,1.61,0,0,1,1.16-1.13,5.49,5.49,0,0,1,1.16-.09c.27,0,.5-.05.5-.14v0" transform="translate(-275.51 -268.84)"/><path class="cls-12" d="M389.16,308.08a10.49,10.49,0,0,0-2-1.48c-1-.64-2.15-.62-3.85-.62v0c0,.09.18.14.58.14a12.3,12.3,0,0,1,1.43.09c1.09.15,1.56.67,1.75,2h2.06v-.12" transform="translate(-275.51 -268.84)"/><path class="cls-13" d="M387.19,306.6a10.49,10.49,0,0,1,2,1.48,8.92,8.92,0,0,1,1.85-1.5c.94-.59,1.66-.6,3.2-.6,0-.09-.24-.17-.71-.17-1.34,0-4.16.14-4.39.14s-3-.14-5.06-.14c-.51,0-.69.08-.71.17,1.7,0,2.81,0,3.85.62" transform="translate(-275.51 -268.84)"/><path class="cls-14" d="M381,323.23c3.66,0,5.94-.62,8.17-2.14l-2.1-.45a1.7,1.7,0,0,1-.36.34,11.18,11.18,0,0,1-5.47,1.18H381v1.07h0" transform="translate(-275.51 -268.84)"/><path class="cls-15" d="M381,323.23v-1.07a15.84,15.84,0,0,1-11.44-5.06,11.4,11.4,0,0,1-1.2-1.48L367,317A17.87,17.87,0,0,0,381,323.23" transform="translate(-275.51 -268.84)"/><path class="cls-16" d="M366.19,319.13A19.72,19.72,0,0,0,377.52,324v-1.08a17.07,17.07,0,0,1-12.62-9.31h-2.42a16.09,16.09,0,0,0,3.71,5.51" transform="translate(-275.51 -268.84)"/><path class="cls-17" d="M389.55,289.94a16.31,16.31,0,0,0-4.4-1.47v1.28c2.61.76,4.46,1.95,5,3.2a6.47,6.47,0,0,1,.4,2c0,.67.09.85.18.85h0a11.42,11.42,0,0,0-1.2-5.89" transform="translate(-275.51 -268.84)"/><path class="cls-18" d="M391.22,288.6a.29.29,0,0,0-.27-.14,22.84,22.84,0,0,1-3.85-.52v1a14.54,14.54,0,0,1,2.45,1,11.42,11.42,0,0,1,1.2,5.89c.08,0,.2-.25.2-1a42.81,42.81,0,0,1,.31-6,.61.61,0,0,0,0-.24" transform="translate(-275.51 -268.84)"/><path class="cls-19" d="M387.19,306.6c-1-.64-2.15-.62-3.85-.62v0c0,.09.18.14.58.14a12.3,12.3,0,0,1,1.43.09c1.75.24,1.88,1.42,1.88,5.25V320a1,1,0,0,1-.17.61l2.1.45v-13a10.49,10.49,0,0,0-2-1.48" transform="translate(-275.51 -268.84)"/><path class="cls-20" d="M394.21,306c-1.54,0-2.26,0-3.2.6a8.92,8.92,0,0,0-1.85,1.5v13H391c0-.3,0-.71,0-1.29v-5.58c0-2,0-3.4.09-4.92s.41-2.83,1.48-3.07a5.49,5.49,0,0,1,1.16-.09c.27,0,.5-.05.5-.14v0" transform="translate(-275.51 -268.84)"/><path class="cls-2" d="M417.49,323.65c-2.44,0-3.89,0-5.18-.1l-1.35,0-1.74-.06c-1.31,0-2.66-.09-3.86-.09-.52,0-1,0-1.59.07s-1.13.08-1.72.08-.69-.08-.69-.12.11-.12.29-.12a4,4,0,0,0,.67,0c1.55-.24,2.07-1.44,2.16-4.94,0-1.82.08-4.25.08-8.46v-8.31c0-7.37,0-8.7-.08-10.21s-.37-2.84-2-3.1a7.61,7.61,0,0,0-1.26-.09c-.46,0-.56-.07-.56-.12s.19-.16.7-.16c1.05,0,2.24,0,5.06.16h0c1.07,0,9.24,0,10.23-.06a11.28,11.28,0,0,0,2.24-.29l.23-.11a.51.51,0,0,1,.21-.08h0a.78.78,0,0,1,0,.38c0,.12,0,.25-.09.41a10.53,10.53,0,0,0-.27,1.82c0,.51-.07.95-.11,1.61,0,.26-.05.55-.07.89-.05.63-.15.64-.16.64s-.11-.16-.15-.59c0-.12,0-.23,0-.34s0-.42-.1-.75c-.23-1.24-1.47-1.58-3.69-1.77-.77-.05-5.65-.14-6.15-.14-.28,0-.3,0-.3.35v13.38c0,.29,0,.31.26.31,1.44,0,6.21,0,7.17-.1,1.47-.1,2.39-.2,2.71-.77,0-.08.13-.27.2-.27s.07.18.07.26a3.54,3.54,0,0,1-.09.59,17.67,17.67,0,0,0-.27,1.91c-.09,1-.12,1.64-.14,2.14,0,.24,0,.45,0,.65,0,.58-.13.64-.2.64s-.11-.15-.11-.59a2.9,2.9,0,0,0-.09-.85c-.25-1.07-1.62-1.6-2.71-1.72s-5.63-.24-6.5-.24c-.24,0-.26,0-.26.31v4.2c0,.45,0,1.21,0,2.08,0,2.24,0,5.29,0,6,.09,2.15.33,3,1.49,3.47a10.19,10.19,0,0,0,3.73.42,16.83,16.83,0,0,0,4.35-.47c1.37-.43,2-1,2.3-3,.1-.56.19-.68.24-.68s0,0,0,0a1.23,1.23,0,0,1,.05.67v.06a39.59,39.59,0,0,1-.7,4.47c-.17.67-.2.79-2.27.79" transform="translate(-275.51 -268.84)"/><path class="cls-3" d="M417.72,321.37l-.1,0,.82,1.06h.05l0,0-.8-1.05" transform="translate(-275.51 -268.84)"/><path class="cls-21" d="M416.9,304.66c.86-.61,1.71-1.5,1.71-2.16-.09,0-.18.19-.22.28-.31.57-1.25.66-2.69.76-1,.09-6.53.09-7.11.09-.17,0-.23,0-.26-.1l-.33,1c.77,0,7.46,0,8.9.14" transform="translate(-275.51 -268.84)"/><path class="cls-22" d="M408,304.52l.36.87s.11-.06.27-.06c.76,0,5.19.1,6.4.24,1.61.19,2.51.95,2.69,1.7a2.9,2.9,0,0,1,.09.85c0,.43,0,.62.13.62a5.34,5.34,0,0,0-1-4.08c-1.44-.18-8.13-.14-8.9-.14" transform="translate(-275.51 -268.84)"/><path class="cls-3" d="M416.9,304.66a5.34,5.34,0,0,1,1,4.08c.09,0,.18-.1.23-.67s0-1.32.17-2.78.36-2.13.36-2.51c0-.09,0-.28-.09-.28,0,.66-.85,1.55-1.71,2.16" transform="translate(-275.51 -268.84)"/><path class="cls-3" d="M419.78,322.87c.35-1.42.67-4.16.71-4.54s0-.69-.08-.71c-.28,3.19-1.23,4.09-1.91,4.85.44.35.72.63,1,.93a1.09,1.09,0,0,0,.24-.53" transform="translate(-275.51 -268.84)"/><path class="cls-3" d="M417.76,289c.93,1.15,1,2.61.94,4.21.05,0,.14-.09.18-.66.09-1.23.14-1.79.18-2.5a13.3,13.3,0,0,1,.36-2.22c0-.25,0-.39,0-.42,0,.31-1.16,1.27-1.64,1.59" transform="translate(-275.51 -268.84)"/><path class="cls-23" d="M404.3,288.5a7.41,7.41,0,0,0-3.64-.53v0c0,.09.18.14.58.14a8.78,8.78,0,0,1,1.26.09c1.47.24,1.88,1.47,2,3.08s.09,2.83.09,10.21v8.31c0,4.21-.05,6.62-.09,8.46-.09,3.55-.63,4.68-2.15,4.92a4,4,0,0,1-.67.05c-.18,0-.32,0-.32.14a6,6,0,0,0,3.26-.6,8.92,8.92,0,0,0,1.85-1.5V290.07a8.86,8.86,0,0,0-2.14-1.57" transform="translate(-275.51 -268.84)"/><path class="cls-24" d="M408.79,322.34a5.69,5.69,0,0,1-2.35-1,8.92,8.92,0,0,1-1.85,1.5,6,6,0,0,1-3.26.6h0c0,.09.23.14.72.14,1.16,0,2.24-.14,3.31-.14,1.75,0,3.81.09,5.6.14s3.22.14,6.53.14c1.32,0,1.82,0,2.05-.27a12.89,12.89,0,0,0-1-.93,32.5,32.5,0,0,1-9.71-.13" transform="translate(-275.51 -268.84)"/><path class="cls-25" d="M406.44,290.07a3.75,3.75,0,0,1,1.32-1.14,15.26,15.26,0,0,1,3.62-.17,61.64,61.64,0,0,1,6.38.26c.48-.32,1.61-1.28,1.64-1.59h0a2.32,2.32,0,0,0-.44.19,11.22,11.22,0,0,1-2.24.28c-1,.05-9.94.05-10.25.05-2.82-.14-4-.14-5.06-.14-.51,0-.7.08-.72.17a7.41,7.41,0,0,1,3.64.53,8.86,8.86,0,0,1,2.14,1.57" transform="translate(-275.51 -268.84)"/><path class="cls-26" d="M420.4,317.62c-.09,0-.18.19-.27.71-.26,2-.94,2.55-2.28,3l-.2.06.85,1.1c.68-.76,1.63-1.66,1.91-4.85h0" transform="translate(-275.51 -268.84)"/><path class="cls-27" d="M417.76,289a61.64,61.64,0,0,0-6.38-.26,22.5,22.5,0,0,0-3.31.09l.37.81.15,0c.49,0,5.37.1,6.13.14,2.24.19,3.45.62,3.67,1.85.09.52.09.66.13,1s.09.61.18.61c0-1.59,0-3.06-.94-4.21" transform="translate(-275.51 -268.84)"/><path class="cls-28" d="M417.65,321.37a17.27,17.27,0,0,1-4.14.41,10.38,10.38,0,0,1-3.72-.42c-1.16-.48-1.38-1.33-1.47-3.45-.05-1,0-6.48,0-8.09v-4.16c0-.14,0-.22,0-.27l-.36-.87.33-1a2,2,0,0,1,0-.28V290.07c0-.23,0-.34.07-.39l.05,0-.37-.81a1.56,1.56,0,0,0-.61.23,5.31,5.31,0,0,0-1,1v31.22a5.69,5.69,0,0,0,2.35,1,32.5,32.5,0,0,0,9.71.13l-.85-1.1" transform="translate(-275.51 -268.84)"/><path class="cls-29" d="M406.44,290.07a8.86,8.86,0,0,0-2.14-1.57,7.41,7.41,0,0,0-3.64-.53v0c0,.09.18.14.58.14a8.78,8.78,0,0,1,1.26.09c1.47.24,1.88,1.47,2,3.08s.09,2.83.09,10.21v8.31c0,4.21-.05,6.62-.09,8.46,0,.24,0,.47,0,.68h2V290.07" transform="translate(-275.51 -268.84)"/><path class="cls-30" d="M417.65,321.37a17.27,17.27,0,0,1-4.14.41,10.38,10.38,0,0,1-3.72-.42c-1.16-.48-1.38-1.33-1.47-3.45-.05-1,0-6.48,0-8.09v-4.16c0-.14,0-.22,0-.27l-.36-.87.33-1a2,2,0,0,1,0-.28V289.94l-.69-1-.17.1a5.31,5.31,0,0,0-1,1v31.22a5.69,5.69,0,0,0,2.35,1,32.5,32.5,0,0,0,9.71.13l-.85-1.1" transform="translate(-275.51 -268.84)"/><path class="cls-31" d="M406.44,290.07a3.75,3.75,0,0,1,1.32-1.14,15.26,15.26,0,0,1,3.62-.17,61.64,61.64,0,0,1,6.38.26c.48-.32,1.61-1.28,1.64-1.59h0a2.32,2.32,0,0,0-.44.19,11.22,11.22,0,0,1-2.24.28c-1,.05-9.94.05-10.25.05-2.82-.14-4-.14-5.06-.14-.51,0-.7.08-.72.17a7.41,7.41,0,0,1,3.64.53,8.86,8.86,0,0,1,2.14,1.57" transform="translate(-275.51 -268.84)"/><path class="cls-32" d="M416.9,304.66a5.34,5.34,0,0,1,1,4.08c.09,0,.18-.1.23-.67s0-1.32.17-2.78.36-2.13.36-2.51c0-.09,0-.28-.09-.28,0,.66-.85,1.55-1.71,2.16" transform="translate(-275.51 -268.84)"/><path class="cls-33" d="M408,304.52l.36.87s.11-.06.27-.06c.46,0,2.27,0,3.89.1v-.91H408" transform="translate(-275.51 -268.84)"/><path class="cls-34" d="M416.9,304.66c-.68-.09-2.53-.12-4.38-.14v.91c1.06,0,2,.08,2.51.14,1.61.19,2.51.95,2.69,1.7a2.9,2.9,0,0,1,.09.85c0,.43,0,.62.13.62a5.34,5.34,0,0,0-1-4.08" transform="translate(-275.51 -268.84)"/><path class="cls-27" d="M411.38,288.76a22.5,22.5,0,0,0-3.31.09l.37.81.15,0c.49,0,5.37.1,6.13.14l.85.1v-1c-1.68-.07-3.71-.08-4.19-.08" transform="translate(-275.51 -268.84)"/><path class="cls-35" d="M417.76,289a17.35,17.35,0,0,0-2.19-.18v1c1.69.22,2.63.68,2.82,1.75.09.52.09.66.13,1s.09.61.18.61c0-1.59,0-3.06-.94-4.21" transform="translate(-275.51 -268.84)"/><path class="cls-36" d="M416.9,304.66c.86-.61,1.71-1.5,1.71-2.16-.09,0-.18.19-.22.28-.31.57-1.25.66-2.69.76-1,.09-6.53.09-7.11.09-.17,0-.23,0-.26-.1l-.33,1c.77,0,7.46,0,8.9.14" transform="translate(-275.51 -268.84)"/><path class="cls-37" d="M417.76,289c.93,1.15,1,2.61.94,4.21.05,0,.14-.09.18-.66.09-1.23.14-1.79.18-2.5a13.3,13.3,0,0,1,.36-2.22c0-.25,0-.39,0-.42,0,.31-1.16,1.27-1.64,1.59" transform="translate(-275.51 -268.84)"/><path class="cls-38" d="M419.4,287.43h0a2.32,2.32,0,0,0-.44.19,9.83,9.83,0,0,1-2,.27l.73,1.12.13,0c.48-.32,1.61-1.28,1.64-1.59" transform="translate(-275.51 -268.84)"/><path class="cls-39" d="M406.44,290.07a8.86,8.86,0,0,0-2.14-1.57,7.41,7.41,0,0,0-3.64-.53v0c0,.09.18.14.58.14a8.78,8.78,0,0,1,1.26.09c1.29.21,1.76,1.17,1.92,2.49h2v-.64" transform="translate(-275.51 -268.84)"/><path class="cls-40" d="M419.78,322.87c.35-1.42.67-4.16.71-4.54s0-.69-.08-.71c-.28,3.19-1.23,4.09-1.91,4.85.44.35.72.63,1,.93a1.09,1.09,0,0,0,.24-.53" transform="translate(-275.51 -268.84)"/><path class="cls-41" d="M420.4,317.62c-.09,0-.18.19-.27.71-.26,2-.94,2.55-2.28,3l-.2.06.85,1.1c.68-.76,1.63-1.66,1.91-4.85h0" transform="translate(-275.51 -268.84)"/><path class="cls-42" d="M408.79,322.34a5.69,5.69,0,0,1-2.35-1,8.92,8.92,0,0,1-1.85,1.5,6,6,0,0,1-3.26.6h0c0,.09.23.14.72.14,1.16,0,2.24-.14,3.31-.14,1.75,0,3.81.09,5.6.14s3.22.14,6.53.14c1.32,0,1.82,0,2.05-.27a12.89,12.89,0,0,0-1-.93,32.5,32.5,0,0,1-9.71-.13" transform="translate(-275.51 -268.84)"/><path class="cls-43" d="M417.65,321.37a17.27,17.27,0,0,1-4.14.41,10.38,10.38,0,0,1-3.72-.42c-1.16-.48-1.38-1.33-1.47-3.45-.05-1,0-6.48,0-8.09v-4.16c0-.14,0-.22,0-.27l-.36-.87.33-1a2,2,0,0,1,0-.28V290.07c0-.23,0-.34.07-.39l.05,0-.37-.81a1.56,1.56,0,0,0-.61.23,5.31,5.31,0,0,0-1,1v31.22a5.69,5.69,0,0,0,2.35,1,32.5,32.5,0,0,0,9.71.13l-.85-1.1" transform="translate(-275.51 -268.84)"/><path class="cls-44" d="M404.3,288.5a7.41,7.41,0,0,0-3.64-.53v0c0,.09.18.14.58.14a8.78,8.78,0,0,1,1.26.09c1.47.24,1.88,1.47,2,3.08s.09,2.83.09,10.21v8.31c0,4.21-.05,6.62-.09,8.46-.09,3.55-.63,4.68-2.15,4.92a4,4,0,0,1-.67.05c-.18,0-.32,0-.32.14a6,6,0,0,0,3.26-.6,8.92,8.92,0,0,0,1.85-1.5V290.07a8.86,8.86,0,0,0-2.14-1.57" transform="translate(-275.51 -268.84)"/><path class="cls-45" d="M416.9,304.66c.86-.61,1.71-1.5,1.71-2.16-.09,0-.18.19-.22.28-.31.57-1.25.66-2.69.76-1,.09-6.53.09-7.11.09-.17,0-.23,0-.26-.1l-.33,1c.77,0,7.46,0,8.9.14" transform="translate(-275.51 -268.84)"/><path class="cls-46" d="M408,304.52l.36.87s.11-.06.27-.06c.76,0,5.19.1,6.4.24,1.61.19,2.51.95,2.69,1.7a2.9,2.9,0,0,1,.09.85c0,.43,0,.62.13.62a5.34,5.34,0,0,0-1-4.08c-1.44-.18-8.13-.14-8.9-.14" transform="translate(-275.51 -268.84)"/><path class="cls-47" d="M406.44,290.07a3.75,3.75,0,0,1,1.32-1.14,15.26,15.26,0,0,1,3.62-.17,61.64,61.64,0,0,1,6.38.26c.48-.32,1.61-1.28,1.64-1.59h0a2.32,2.32,0,0,0-.44.19,11.22,11.22,0,0,1-2.24.28c-1,.05-9.94.05-10.25.05-2.82-.14-4-.14-5.06-.14-.51,0-.7.08-.72.17a7.41,7.41,0,0,1,3.64.53,8.86,8.86,0,0,1,2.14,1.57" transform="translate(-275.51 -268.84)"/><path class="cls-48" d="M417.76,289a61.64,61.64,0,0,0-6.38-.26,22.5,22.5,0,0,0-3.31.09l.37.81.15,0c.49,0,5.37.1,6.13.14,2.24.19,3.45.62,3.67,1.85.09.52.09.66.13,1s.09.61.18.61c0-1.59,0-3.06-.94-4.21" transform="translate(-275.51 -268.84)"/><path class="cls-2" d="M444.76,323.51c-1.67,0-3.69-.08-4.67-.12l-.57,0-.75,0c-1,.05-2.69.12-3.64.12-.66,0-.69-.14-.69-.17s.09-.12.33-.12a6.81,6.81,0,0,0,1.35-.09c.94-.2,1.14-1.78,1.31-3.05.22-2,.21-5.63.21-10.26v-20h0c-1.1,0-2.23,0-3.31,0s-2.22,0-3.32,0a24.46,24.46,0,0,0-3.45.17,2,2,0,0,0-1.44.78,4.09,4.09,0,0,0-.49,1.34c0,.09,0,.17-.06.23-.08.34-.12.5-.2.5s-.06-.2-.06-.45c0-.56.19-1.83.33-3,.09-.69.17-1.28.2-1.62v-.09c0-.33.06-.41.19-.41a1.84,1.84,0,0,1,.47.08,7.38,7.38,0,0,0,1.46.26c1.3.14,3.46.25,4,.25h16.79a24.36,24.36,0,0,0,4.08-.25,2.35,2.35,0,0,0,.4-.16.59.59,0,0,1,.27-.08h0a.8.8,0,0,1,0,.52,34.15,34.15,0,0,0-.31,3.75c0,.25,0,.51-.05.79,0,.57-.13.69-.15.69s-.13-.31-.16-.64c0-.05,0-.1,0-.15a3.48,3.48,0,0,0-.21-1c-.43-1-.91-1.53-5.61-1.62l-2.82,0c-.93,0-1.88,0-2.82,0h0v20c0,4.63,0,8.28.24,10.26.13,1.38.4,2.86,1.81,3.05a15.27,15.27,0,0,0,1.94.09c.28,0,.38.06.38.12s-.05.17-1,.17" transform="translate(-275.51 -268.84)"/><path class="cls-2" d="M441.74,323a6.47,6.47,0,0,1-2.22-1.67,8.92,8.92,0,0,1-1.85,1.5,6,6,0,0,1-3.24.6c0,.06.19.14.7.14,1.34,0,4.16-.14,4.39-.14s3,.14,5.24.14c.94,0,1-.14,1-.19a10.24,10.24,0,0,1-4-.38" transform="translate(-275.51 -268.84)"/><path class="cls-49" d="M427.3,288.93A7.47,7.47,0,0,1,426,287.4c-.09.05-.1.2-.13.49-.09.9-.49,3.69-.54,4.59,0,.28,0,.47.09.47h0c0-.49.19-3,1.92-4" transform="translate(-275.51 -268.84)"/><path class="cls-3" d="M453.51,287.47a5.43,5.43,0,0,1-1.64,1.65c1.25,1.39,1.17,2.59,1.17,4.16,0,0,.13-.14.18-.71.13-2.36.18-3.45.35-4.53.05-.31,0-.53-.06-.57" transform="translate(-275.51 -268.84)"/><path class="cls-50" d="M427.3,288.93c-1.73,1-1.88,3.53-1.92,4,.09,0,.13-.16.22-.52a5.34,5.34,0,0,1,.53-1.56c.67-.85,1.53-.9,4.88-.94,2.2-.05,4.43-.05,6.63-.1l.94-.94c-5.57,0-10.9,0-11.28,0" transform="translate(-275.51 -268.84)"/><path class="cls-51" d="M440.46,288.89l.94.94c1.88.05,3.76.05,5.64.1,4.83.09,5.19.71,5.59,1.6a4.31,4.31,0,0,1,.23,1.09c0,.47.09.66.18.66,0-1.57.08-2.77-1.17-4.16-.37-.18-6.39-.23-11.41-.23" transform="translate(-275.51 -268.84)"/><path class="cls-52" d="M453.48,287.47c-.17,0-.31.14-.67.23a24.15,24.15,0,0,1-4.07.24H432c-.53,0-2.68-.09-4-.24s-1.57-.33-1.93-.33a.12.12,0,0,0-.09,0,7.47,7.47,0,0,0,1.35,1.53c.38-.06,5.71-.05,11.28,0l.94.94.94-.94c5,0,11,.05,11.41.23a5.54,5.54,0,0,0,1.64-1.65h0" transform="translate(-275.51 -268.84)"/><path class="cls-53" d="M445.34,323.2a15.2,15.2,0,0,1-1.93-.09c-1.39-.19-1.65-1.66-1.79-3-.22-2-.22-5.72-.22-10.26v-20l-.94-.94-.94.94v31.46a6.47,6.47,0,0,0,2.22,1.67,10.22,10.22,0,0,0,4,.38s0-.14-.4-.14" transform="translate(-275.51 -268.84)"/><path class="cls-54" d="M438.58,288.89l-.94.94v20c0,4.54,0,8.28-.23,10.26-.17,1.37-.4,2.84-1.29,3a6.81,6.81,0,0,1-1.35.09c-.31,0-.36.09-.36.14a.17.17,0,0,0,0,.05,6,6,0,0,0,3.24-.6,8.92,8.92,0,0,0,1.85-1.5V289.83l-.94-.94" transform="translate(-275.51 -268.84)"/><path class="cls-55" d="M439.52,289.83l-.94-.94-.94.94v20c0,4.54,0,8.28-.23,10.26,0,.3-.08.6-.13.9h2.24V289.83" transform="translate(-275.51 -268.84)"/><path class="cls-56" d="M441.62,320.08c-.22-2-.22-5.72-.22-10.26v-20l-.94-.94-.94.94V321h2.22q-.08-.45-.12-.9" transform="translate(-275.51 -268.84)"/><path class="cls-57" d="M453.48,287.47c-.17,0-.31.14-.67.23a24.15,24.15,0,0,1-4.07.24H432c-.53,0-2.68-.09-4-.24s-1.57-.33-1.93-.33a.12.12,0,0,0-.09,0,7.47,7.47,0,0,0,1.35,1.53c.38-.06,5.71-.05,11.28,0l.94.94.94-.94c5,0,11,.05,11.41.23a5.54,5.54,0,0,0,1.64-1.65h0" transform="translate(-275.51 -268.84)"/><path class="cls-58" d="M428,288.9V290c.69-.07,1.65-.09,3-.11,2.2-.05,4.43-.05,6.63-.1l.94-.94c-4.55,0-8.94,0-10.6,0" transform="translate(-275.51 -268.84)"/><path class="cls-59" d="M440.46,288.89l.94.94c1.88.05,3.76.05,5.64.1a19.89,19.89,0,0,1,3.86.33V289c-2-.1-6.51-.13-10.44-.13" transform="translate(-275.51 -268.84)"/><path class="cls-60" d="M445.34,323.2a15.2,15.2,0,0,1-1.93-.09c-1.08-.15-1.48-1.08-1.67-2.13h-2.22v.31a6.47,6.47,0,0,0,2.22,1.67,10.22,10.22,0,0,0,4,.38s0-.14-.4-.14" transform="translate(-275.51 -268.84)"/><path class="cls-61" d="M440.46,288.89l.94.94,1.45,0v-1h-2.39" transform="translate(-275.51 -268.84)"/><path class="cls-62" d="M451.87,289.12a14,14,0,0,0-2.09-.14v1.1c2.27.25,2.55.77,2.85,1.45a4.31,4.31,0,0,1,.23,1.09c0,.47.09.66.18.66,0-1.57.08-2.77-1.17-4.16" transform="translate(-275.51 -268.84)"/><path class="cls-63" d="M453.51,287.47a5.43,5.43,0,0,1-1.64,1.65c1.25,1.39,1.17,2.59,1.17,4.16,0,0,.13-.14.18-.71.13-2.36.18-3.45.35-4.53.05-.31,0-.53-.06-.57" transform="translate(-275.51 -268.84)"/><path class="cls-64" d="M425.38,293c.09,0,.13-.16.22-.52,0-.2.14-.62.26-1h-.24a8.88,8.88,0,0,0-.24,1.51" transform="translate(-275.51 -268.84)"/><path class="cls-65" d="M425.28,292.48c0,.28,0,.47.09.47h0c0-.14,0-.43.09-.8h-.16c0,.12,0,.24,0,.33" transform="translate(-275.51 -268.84)"/><polygon class="cls-66" points="164.01 20.99 163.07 20.04 162.13 20.99 162.13 22.48 164.01 22.48 164.01 20.99"/><path class="cls-67" d="M441.74,323a6.47,6.47,0,0,1-2.22-1.67,8.92,8.92,0,0,1-1.85,1.5,6,6,0,0,1-3.24.6c0,.06.19.14.7.14,1.34,0,4.16-.14,4.39-.14s3,.14,5.24.14c.94,0,1-.14,1-.19a10.24,10.24,0,0,1-4-.38" transform="translate(-275.51 -268.84)"/><path class="cls-68" d="M427.3,288.93A7.47,7.47,0,0,1,426,287.4c-.09.05-.1.2-.13.49-.08.81-.41,3.14-.51,4.26h.16a4.4,4.4,0,0,1,1.83-3.22" transform="translate(-275.51 -268.84)"/><path class="cls-69" d="M441.62,320.08c-.22-2-.22-5.72-.22-10.26v-20l-.94-.94-.94.94V321h2.22q-.08-.45-.12-.9" transform="translate(-275.51 -268.84)"/><path class="cls-70" d="M432,287.94c-.53,0-2.68-.09-4-.24l-.37,0v1.24c1.26,0,6,0,11,0v-.95H432" transform="translate(-275.51 -268.84)"/><path class="cls-71" d="M448.74,287.94h-8.26v.95c4.76,0,10.42.05,11.29.21v-1.27c-.72.06-1.75.11-3,.11" transform="translate(-275.51 -268.84)"/><path class="cls-72" d="M427.3,288.93c-1.73,1-1.88,3.53-1.92,4,.09,0,.13-.16.22-.52a5.34,5.34,0,0,1,.53-1.56c.67-.85,1.53-.9,4.88-.94,2.2-.05,4.43-.05,6.63-.1l.94-.94c-5.57,0-10.9,0-11.28,0" transform="translate(-275.51 -268.84)"/><path class="cls-73" d="M438.58,288.89l-.94.94v20c0,4.54,0,8.28-.23,10.26-.17,1.37-.4,2.84-1.29,3a6.81,6.81,0,0,1-1.35.09c-.31,0-.36.09-.36.14a.17.17,0,0,0,0,.05,6,6,0,0,0,3.24-.6,8.92,8.92,0,0,0,1.85-1.5V289.83l-.94-.94" transform="translate(-275.51 -268.84)"/><path class="cls-74" d="M440.46,288.89l.94.94c1.88.05,3.76.05,5.64.1,4.83.09,5.19.71,5.59,1.6a4.31,4.31,0,0,1,.23,1.09c0,.47.09.66.18.66,0-1.57.08-2.77-1.17-4.16-.37-.18-6.39-.23-11.41-.23" transform="translate(-275.51 -268.84)"/><path class="cls-2" d="M480.48,324.17a13.3,13.3,0,0,1-6.21-1.37c-.41-.24-.44-.42-.44-.92,0-2.45.11-3.76.18-4.54,0-.22,0-.4,0-.57.05-.48.13-.73.25-.73s.07.15.07.49v.15a8.38,8.38,0,0,0,.27,2.41c.49,1.83,3.61,3.38,6.82,3.38a6,6,0,0,0,6.29-6.31,8.08,8.08,0,0,0-1-4.28,17.45,17.45,0,0,0-3.91-4.34l-2-1.75a20.3,20.3,0,0,1-4.73-5.41,9.42,9.42,0,0,1-1.18-4.74,8.13,8.13,0,0,1,2.5-6.13,9.67,9.67,0,0,1,6.75-2.35,16.7,16.7,0,0,1,4.16.47,8.44,8.44,0,0,0,1.88.29.25.25,0,0,1,.19.06.24.24,0,0,1,0,.19,16.67,16.67,0,0,0-.26,4.17c0,1.2-.16,1.3-.21,1.3s-.12-.32-.15-.83v-.1a4.32,4.32,0,0,0-.58-2c-.12-.2-1.31-2-5.88-2a5.37,5.37,0,0,0-3.86,1.45,5.5,5.5,0,0,0-1.54,4,6.39,6.39,0,0,0,1,3.71,19.77,19.77,0,0,0,4.23,4.35l1.25,1a22.5,22.5,0,0,1,5.29,5.73,10,10,0,0,1,1.33,5.26,10.57,10.57,0,0,1-.74,3.77,9.23,9.23,0,0,1-3.06,4.06,11.28,11.28,0,0,1-6.74,2" transform="translate(-275.51 -268.84)"/><path class="cls-3" d="M489,288.93a8.05,8.05,0,0,1,1,4.73c.09,0,.22-.2.22-1.32a15.43,15.43,0,0,1,.27-4.16.23.23,0,0,0,0-.22,6.92,6.92,0,0,1-1.41,1" transform="translate(-275.51 -268.84)"/><path class="cls-75" d="M474.3,316c-.13,0-.22.23-.27.75,0,.76-.22,2-.22,5.11a1.49,1.49,0,0,0,.07.57,10.56,10.56,0,0,1,1.31-.67,9.13,9.13,0,0,1-.89-5.76" transform="translate(-275.51 -268.84)"/><path class="cls-76" d="M484.42,303.35l-1.26-1c-4.29-3.55-5.23-5.34-5.23-8a5.11,5.11,0,0,1,5.37-5.48h.31c3.88.07,5.25,1.43,5.55,1.94a4.47,4.47,0,0,1,.58,2.08c.05.66.09.85.18.85h0a8.05,8.05,0,0,0-1-4.73,16.07,16.07,0,0,0-5.36-1,7.61,7.61,0,0,0-5.37,2.06c-2.61,2.57-2.73,8.29,2.33,12.78.39.35,3.09,2.56,3.49,2.88,5.15,4.13,7.24,10.35,3.42,14.92a8.18,8.18,0,0,1-6.42,2.77,10.87,10.87,0,0,1-5.87-1.57,10.56,10.56,0,0,0-1.31.67.8.8,0,0,0,.38.37,13.33,13.33,0,0,0,6.22,1.37h.58a11.12,11.12,0,0,0,6.18-2,10,10,0,0,0,3.8-7.85c0-3.78-1.34-6.62-6.62-11" transform="translate(-275.51 -268.84)"/><path class="cls-77" d="M478.24,290a7.61,7.61,0,0,1,5.37-2.06,16.07,16.07,0,0,1,5.36,1,6.92,6.92,0,0,0,1.41-1,.26.26,0,0,0-.19-.07,8.35,8.35,0,0,1-1.88-.28,16.68,16.68,0,0,0-4.16-.47h-.54c-5.37.21-8.73,3.6-8.73,8.49,0,3.22,1.17,6.05,5.91,10.17l2,1.75c3.85,3.35,4.92,5.34,4.92,8.6a6,6,0,0,1-6.27,6.28h-.4c-3-.12-5.93-1.58-6.4-3.34a8.89,8.89,0,0,1-.27-2.55c0-.38,0-.52-.09-.52a9.13,9.13,0,0,0,.89,5.76,10.87,10.87,0,0,0,5.87,1.57,8.18,8.18,0,0,0,6.42-2.77c3.82-4.57,1.73-10.79-3.42-14.92-.4-.32-3.1-2.53-3.49-2.88-5.06-4.49-4.94-10.21-2.33-12.78" transform="translate(-275.51 -268.84)"/><path class="cls-2" d="M489,288.93l-1-.33v1.12a3.06,3.06,0,0,1,1.18,1,4.44,4.44,0,0,1,.58,2.08c.05.66.09.85.18.85h0a8.05,8.05,0,0,0-1-4.73" transform="translate(-275.51 -268.84)"/><path class="cls-78" d="M483.61,287.94v.85c3.88.07,5.25,1.43,5.55,1.94a4.44,4.44,0,0,1,.58,2.08c.05.66.09.85.18.85h0a8.05,8.05,0,0,0-1-4.73,16.07,16.07,0,0,0-5.36-1" transform="translate(-275.51 -268.84)"/><path class="cls-79" d="M475.19,321.78a9.15,9.15,0,0,1-.89-5.77c-.13,0-.22.24-.27.76,0,.76-.22,2-.22,5.1a1.52,1.52,0,0,0,.07.58.8.8,0,0,0,.38.37,13.33,13.33,0,0,0,6.22,1.37h.58v-.83a10.87,10.87,0,0,1-5.87-1.57" transform="translate(-275.51 -268.84)"/><path class="cls-80" d="M484.42,303.35l-1.26-1a34.73,34.73,0,0,1-2.84-2.59L479,301.13a13.6,13.6,0,0,0,1.59,1.65c.39.35,3.09,2.56,3.49,2.88a16.3,16.3,0,0,1,3.36,3.62l1.42-1.5a27.27,27.27,0,0,0-4.42-4.43" transform="translate(-275.51 -268.84)"/><path class="cls-81" d="M490.38,288a.26.26,0,0,0-.19-.07,8.35,8.35,0,0,1-1.88-.28,16.68,16.68,0,0,0-4.16-.47h0v.8a16.59,16.59,0,0,1,4.86,1,8.05,8.05,0,0,1,1,4.73c.09,0,.22-.2.22-1.32a15.43,15.43,0,0,1,.27-4.16.23.23,0,0,0,0-.22" transform="translate(-275.51 -268.84)"/><path class="cls-82" d="M484.06,305.66c-.4-.32-3.1-2.53-3.49-2.88a13.57,13.57,0,0,1-2.13-2.36l-1.31,1.6a24.69,24.69,0,0,0,3.66,3.78l2,1.75a22.63,22.63,0,0,1,3.19,3.27l1.41-1.57a16.84,16.84,0,0,0-3.35-3.59" transform="translate(-275.51 -268.84)"/><path class="cls-83" d="M474.66,319.09a8.89,8.89,0,0,1-.27-2.55c0-.38,0-.52-.09-.52a9.13,9.13,0,0,0,.89,5.76,10.59,10.59,0,0,0,5.32,1.56v-.94c-2.8-.27-5.41-1.66-5.85-3.31" transform="translate(-275.51 -268.84)"/><path class="cls-2" d="M515,323.65c-2.45,0-3.9,0-5.18-.1l-1.36,0-1.74-.06c-1.31,0-2.66-.09-3.85-.09-.53,0-1.05,0-1.6.07s-1.12.08-1.72.08-.69-.08-.69-.12.11-.12.29-.12a4,4,0,0,0,.67,0c1.56-.24,2.07-1.44,2.16-4.94.05-1.82.08-4.25.08-8.46v-8.31c0-7.37,0-8.7-.08-10.21s-.37-2.84-2-3.1a7.61,7.61,0,0,0-1.26-.09c-.46,0-.55-.07-.55-.12s.18-.16.69-.16c1.05,0,2.24,0,5.06.16h0c1.06,0,9.23,0,10.22-.06a11.42,11.42,0,0,0,2.25-.29l.22-.11a.59.59,0,0,1,.22-.08h0a.7.7,0,0,1,0,.38c0,.12-.05.25-.08.41a9.38,9.38,0,0,0-.28,1.82c0,.51-.06.95-.11,1.61,0,.26,0,.55-.07.89,0,.63-.15.64-.15.64s-.12-.16-.16-.59c0-.12,0-.23,0-.34s0-.42-.1-.75c-.22-1.24-1.47-1.58-3.69-1.77-.76-.05-5.64-.14-6.14-.14-.29,0-.3,0-.3.35v13.38c0,.29,0,.31.25.31,1.44,0,6.22,0,7.17-.1,1.47-.1,2.39-.2,2.71-.77,0-.08.13-.27.2-.27s.07.18.07.26a3.33,3.33,0,0,1-.08.59,17,17,0,0,0-.28,1.91c-.09,1-.12,1.64-.14,2.14,0,.24,0,.45,0,.65-.05.58-.14.64-.21.64s-.11-.15-.11-.59a2.9,2.9,0,0,0-.09-.85c-.25-1.07-1.61-1.6-2.7-1.72s-5.64-.24-6.51-.24c-.23,0-.25,0-.25.31v6.28c0,2.24,0,5.29,0,6,.09,2.15.33,3,1.5,3.47a10.09,10.09,0,0,0,3.72.42,16.83,16.83,0,0,0,4.35-.47c1.37-.43,2-1,2.3-3,.1-.56.19-.68.25-.68a0,0,0,0,1,0,0,1.23,1.23,0,0,1,0,.67v.06a41.45,41.45,0,0,1-.71,4.47c-.17.67-.2.79-2.26.79" transform="translate(-275.51 -268.84)"/><path class="cls-3" d="M515.26,321.37l-.09,0,.81,1.06h0l0,0-.8-1.05" transform="translate(-275.51 -268.84)"/><path class="cls-84" d="M514.45,304.66c.85-.61,1.71-1.5,1.71-2.16-.09,0-.18.19-.23.28-.31.57-1.25.66-2.68.76-1,.09-6.54.09-7.12.09-.16,0-.23,0-.25-.1l-.33,1c.76,0,7.45,0,8.9.14" transform="translate(-275.51 -268.84)"/><path class="cls-85" d="M505.55,304.52l.35.87s.12-.06.27-.06c.76,0,5.2.1,6.4.24,1.62.19,2.51.95,2.69,1.7a2.9,2.9,0,0,1,.09.85c0,.43,0,.62.13.62a5.34,5.34,0,0,0-1-4.08c-1.45-.18-8.14-.14-8.9-.14" transform="translate(-275.51 -268.84)"/><path class="cls-3" d="M514.45,304.66a5.34,5.34,0,0,1,1,4.08c.09,0,.18-.1.23-.67s0-1.32.18-2.78.35-2.13.35-2.51c0-.09,0-.28-.08-.28,0,.66-.86,1.55-1.71,2.16" transform="translate(-275.51 -268.84)"/><path class="cls-3" d="M517.32,322.87c.36-1.42.67-4.16.72-4.54s0-.69-.09-.71c-.28,3.19-1.22,4.09-1.91,4.85.44.35.72.63,1,.93a1,1,0,0,0,.24-.53" transform="translate(-275.51 -268.84)"/><path class="cls-3" d="M515.3,289c.94,1.15,1,2.61.94,4.21,0,0,.14-.09.18-.66.09-1.23.14-1.79.18-2.5a14.55,14.55,0,0,1,.36-2.22c0-.25,0-.39,0-.42,0,.31-1.17,1.27-1.65,1.59" transform="translate(-275.51 -268.84)"/><path class="cls-86" d="M501.85,288.5a7.45,7.45,0,0,0-3.64-.53v0c0,.09.18.14.59.14a8.62,8.62,0,0,1,1.25.09c1.48.24,1.88,1.47,2,3.08s.09,2.83.09,10.21v8.31c0,4.21-.05,6.62-.09,8.46-.09,3.55-.63,4.68-2.15,4.92a4,4,0,0,1-.67.05c-.18,0-.31,0-.31.14a6,6,0,0,0,3.25-.6,8.92,8.92,0,0,0,1.85-1.5V290.07a8.57,8.57,0,0,0-2.13-1.57" transform="translate(-275.51 -268.84)"/><path class="cls-87" d="M506.33,322.34a5.76,5.76,0,0,1-2.35-1,8.92,8.92,0,0,1-1.85,1.5,6,6,0,0,1-3.25.6h0c0,.09.22.14.71.14,1.17,0,2.24-.14,3.31-.14,1.75,0,3.81.09,5.6.14s3.22.14,6.54.14c1.32,0,1.81,0,2-.27a12.89,12.89,0,0,0-1-.93,32.5,32.5,0,0,1-9.71-.13" transform="translate(-275.51 -268.84)"/><path class="cls-88" d="M504,290.07a3.84,3.84,0,0,1,1.32-1.14,15.3,15.3,0,0,1,3.62-.17,61.53,61.53,0,0,1,6.38.26c.48-.32,1.62-1.28,1.65-1.59h0a2.33,2.33,0,0,0-.45.19,11,11,0,0,1-2.24.28c-1,.05-9.94.05-10.25.05-2.82-.14-4-.14-5.06-.14-.51,0-.7.08-.71.17a7.45,7.45,0,0,1,3.64.53,8.57,8.57,0,0,1,2.13,1.57" transform="translate(-275.51 -268.84)"/><path class="cls-89" d="M518,317.62c-.09,0-.18.19-.27.71-.27,2-.94,2.55-2.29,3l-.19.06.84,1.1c.69-.76,1.63-1.66,1.91-4.85h0" transform="translate(-275.51 -268.84)"/><path class="cls-90" d="M515.3,289a61.53,61.53,0,0,0-6.38-.26,22.56,22.56,0,0,0-3.31.09l.37.81.15,0c.49,0,5.37.1,6.13.14,2.24.19,3.45.62,3.67,1.85.09.52.09.66.14,1s.09.61.17.61c0-1.59,0-3.06-.94-4.21" transform="translate(-275.51 -268.84)"/><path class="cls-91" d="M515.2,321.37a17.35,17.35,0,0,1-4.15.41,10.32,10.32,0,0,1-3.71-.42c-1.17-.48-1.39-1.33-1.48-3.45-.05-1,0-6.48,0-8.09v-4.16c0-.14,0-.22,0-.27l-.35-.87.33-1a1,1,0,0,1,0-.28V290.07c0-.23,0-.34.08-.39l0,0-.37-.81a1.56,1.56,0,0,0-.61.23,5.31,5.31,0,0,0-1,1v31.22a5.76,5.76,0,0,0,2.35,1,32.5,32.5,0,0,0,9.71.13l-.84-1.1" transform="translate(-275.51 -268.84)"/><path class="cls-92" d="M504,290.07a8.57,8.57,0,0,0-2.13-1.57,7.45,7.45,0,0,0-3.64-.53v0c0,.09.18.14.59.14a8.62,8.62,0,0,1,1.25.09c1.48.24,1.88,1.47,2,3.08s.09,2.83.09,10.21v8.31c0,4.21-.05,6.62-.09,8.46,0,.24,0,.47,0,.68h2V290.07" transform="translate(-275.51 -268.84)"/><path class="cls-93" d="M515.2,321.37a17.35,17.35,0,0,1-4.15.41,10.32,10.32,0,0,1-3.71-.42c-1.17-.48-1.39-1.33-1.48-3.45-.05-1,0-6.48,0-8.09v-4.16c0-.14,0-.22,0-.27l-.35-.87.33-1a1,1,0,0,1,0-.28V289.94l-.69-1-.17.1a5.31,5.31,0,0,0-1,1v31.22a5.76,5.76,0,0,0,2.35,1,32.5,32.5,0,0,0,9.71.13l-.84-1.1" transform="translate(-275.51 -268.84)"/><path class="cls-94" d="M504,290.07a3.84,3.84,0,0,1,1.32-1.14,15.3,15.3,0,0,1,3.62-.17,61.53,61.53,0,0,1,6.38.26c.48-.32,1.62-1.28,1.65-1.59h0a2.33,2.33,0,0,0-.45.19,11,11,0,0,1-2.24.28c-1,.05-9.94.05-10.25.05-2.82-.14-4-.14-5.06-.14-.51,0-.7.08-.71.17a7.45,7.45,0,0,1,3.64.53,8.57,8.57,0,0,1,2.13,1.57" transform="translate(-275.51 -268.84)"/><path class="cls-95" d="M514.45,304.66a5.34,5.34,0,0,1,1,4.08c.09,0,.18-.1.23-.67s0-1.32.18-2.78.35-2.13.35-2.51c0-.09,0-.28-.08-.28,0,.66-.86,1.55-1.71,2.16" transform="translate(-275.51 -268.84)"/><path class="cls-96" d="M505.55,304.52l.35.87s.12-.06.27-.06c.46,0,2.27,0,3.9.1v-.91h-4.52" transform="translate(-275.51 -268.84)"/><path class="cls-97" d="M514.45,304.66c-.69-.09-2.54-.12-4.38-.14v.91c1.05,0,2,.08,2.5.14,1.62.19,2.51.95,2.69,1.7a2.9,2.9,0,0,1,.09.85c0,.43,0,.62.13.62a5.34,5.34,0,0,0-1-4.08" transform="translate(-275.51 -268.84)"/><path class="cls-90" d="M508.92,288.76a22.56,22.56,0,0,0-3.31.09l.37.81.15,0c.49,0,5.37.1,6.13.14l.85.1v-1c-1.67-.07-3.71-.08-4.19-.08" transform="translate(-275.51 -268.84)"/><path class="cls-98" d="M515.3,289a17.17,17.17,0,0,0-2.19-.18v1c1.7.22,2.63.68,2.82,1.75.09.52.09.66.14,1s.09.61.17.61c0-1.59,0-3.06-.94-4.21" transform="translate(-275.51 -268.84)"/><path class="cls-99" d="M514.45,304.66c.85-.61,1.71-1.5,1.71-2.16-.09,0-.18.19-.23.28-.31.57-1.25.66-2.68.76-1,.09-6.54.09-7.12.09-.16,0-.23,0-.25-.1l-.33,1c.76,0,7.45,0,8.9.14" transform="translate(-275.51 -268.84)"/><path class="cls-100" d="M515.3,289c.94,1.15,1,2.61.94,4.21,0,0,.14-.09.18-.66.09-1.23.14-1.79.18-2.5a14.55,14.55,0,0,1,.36-2.22c0-.25,0-.39,0-.42,0,.31-1.17,1.27-1.65,1.59" transform="translate(-275.51 -268.84)"/><path class="cls-101" d="M517,287.43h0a2.33,2.33,0,0,0-.45.19,9.83,9.83,0,0,1-2,.27l.73,1.12.13,0c.48-.32,1.62-1.28,1.65-1.59" transform="translate(-275.51 -268.84)"/><path class="cls-102" d="M504,290.07a8.57,8.57,0,0,0-2.13-1.57,7.45,7.45,0,0,0-3.64-.53v0c0,.09.18.14.59.14a8.62,8.62,0,0,1,1.25.09c1.29.21,1.76,1.17,1.92,2.49h2v-.64" transform="translate(-275.51 -268.84)"/><path class="cls-103" d="M517.32,322.87c.36-1.42.67-4.16.72-4.54s0-.69-.09-.71c-.28,3.19-1.22,4.09-1.91,4.85.44.35.72.63,1,.93a1,1,0,0,0,.24-.53" transform="translate(-275.51 -268.84)"/><path class="cls-104" d="M518,317.62c-.09,0-.18.19-.27.71-.27,2-.94,2.55-2.29,3l-.19.06.84,1.1c.69-.76,1.63-1.66,1.91-4.85h0" transform="translate(-275.51 -268.84)"/><path class="cls-105" d="M506.33,322.34a5.76,5.76,0,0,1-2.35-1,8.92,8.92,0,0,1-1.85,1.5,6,6,0,0,1-3.25.6h0c0,.09.22.14.71.14,1.17,0,2.24-.14,3.31-.14,1.75,0,3.81.09,5.6.14s3.22.14,6.54.14c1.32,0,1.81,0,2-.27a12.89,12.89,0,0,0-1-.93,32.5,32.5,0,0,1-9.71-.13" transform="translate(-275.51 -268.84)"/><path class="cls-106" d="M515.2,321.37a17.35,17.35,0,0,1-4.15.41,10.32,10.32,0,0,1-3.71-.42c-1.17-.48-1.39-1.33-1.48-3.45-.05-1,0-6.48,0-8.09v-4.16c0-.14,0-.22,0-.27l-.35-.87.33-1a1,1,0,0,1,0-.28V290.07c0-.23,0-.34.08-.39l0,0-.37-.81a1.56,1.56,0,0,0-.61.23,5.31,5.31,0,0,0-1,1v31.22a5.76,5.76,0,0,0,2.35,1,32.5,32.5,0,0,0,9.71.13l-.84-1.1" transform="translate(-275.51 -268.84)"/><path class="cls-107" d="M501.85,288.5a7.45,7.45,0,0,0-3.64-.53v0c0,.09.18.14.59.14a8.62,8.62,0,0,1,1.25.09c1.48.24,1.88,1.47,2,3.08s.09,2.83.09,10.21v8.31c0,4.21-.05,6.62-.09,8.46-.09,3.55-.63,4.68-2.15,4.92a4,4,0,0,1-.67.05c-.18,0-.31,0-.31.14a6,6,0,0,0,3.25-.6,8.92,8.92,0,0,0,1.85-1.5V290.07a8.57,8.57,0,0,0-2.13-1.57" transform="translate(-275.51 -268.84)"/><path class="cls-108" d="M514.45,304.66c.85-.61,1.71-1.5,1.71-2.16-.09,0-.18.19-.23.28-.31.57-1.25.66-2.68.76-1,.09-6.54.09-7.12.09-.16,0-.23,0-.25-.1l-.33,1c.76,0,7.45,0,8.9.14" transform="translate(-275.51 -268.84)"/><path class="cls-109" d="M505.55,304.52l.35.87s.12-.06.27-.06c.76,0,5.2.1,6.4.24,1.62.19,2.51.95,2.69,1.7a2.9,2.9,0,0,1,.09.85c0,.43,0,.62.13.62a5.34,5.34,0,0,0-1-4.08c-1.45-.18-8.14-.14-8.9-.14" transform="translate(-275.51 -268.84)"/><path class="cls-110" d="M504,290.07a3.84,3.84,0,0,1,1.32-1.14,15.3,15.3,0,0,1,3.62-.17,61.53,61.53,0,0,1,6.38.26c.48-.32,1.62-1.28,1.65-1.59h0a2.33,2.33,0,0,0-.45.19,11,11,0,0,1-2.24.28c-1,.05-9.94.05-10.25.05-2.82-.14-4-.14-5.06-.14-.51,0-.7.08-.71.17a7.45,7.45,0,0,1,3.64.53,8.57,8.57,0,0,1,2.13,1.57" transform="translate(-275.51 -268.84)"/><path class="cls-111" d="M515.3,289a61.53,61.53,0,0,0-6.38-.26,22.56,22.56,0,0,0-3.31.09l.37.81.15,0c.49,0,5.37.1,6.13.14,2.24.19,3.45.62,3.67,1.85.09.52.09.66.14,1s.09.61.17.61c0-1.59,0-3.06-.94-4.21" transform="translate(-275.51 -268.84)"/><path class="cls-2" d="M542.3,323.51c-1.66,0-3.69-.08-4.67-.12l-.57,0-.75,0c-1,.05-2.68.12-3.64.12-.66,0-.69-.14-.69-.17s.09-.12.34-.12a6.76,6.76,0,0,0,1.34-.09c1-.2,1.14-1.78,1.31-3.05.22-2,.21-5.63.21-10.26v-20h0c-1.1,0-2.22,0-3.31,0s-2.22,0-3.32,0a24.56,24.56,0,0,0-3.45.17,2,2,0,0,0-1.44.78,4.09,4.09,0,0,0-.49,1.34c0,.09,0,.17,0,.23-.08.34-.13.5-.21.5s-.06-.2-.06-.45c0-.56.19-1.83.33-3,.09-.69.17-1.28.2-1.62l0-.09c0-.33.05-.41.19-.41a2,2,0,0,1,.47.08,7.24,7.24,0,0,0,1.45.26c1.3.14,3.46.25,4,.25h16.78a24.36,24.36,0,0,0,4.08-.25,2.05,2.05,0,0,0,.4-.16.59.59,0,0,1,.27-.08h0a.9.9,0,0,1,0,.52c-.15,1-.2,1.89-.31,3.75,0,.25,0,.51,0,.79,0,.57-.14.69-.16.69s-.13-.31-.16-.64a.77.77,0,0,0,0-.15,3.9,3.9,0,0,0-.2-1c-.44-1-.92-1.53-5.62-1.62l-2.82,0c-.92,0-1.88,0-2.82,0h0v20c0,4.63,0,8.28.23,10.26.14,1.38.4,2.86,1.82,3.05a15,15,0,0,0,1.93.09c.28,0,.38.06.38.12s0,.17-1,.17" transform="translate(-275.51 -268.84)"/><path class="cls-2" d="M539.28,323a6.47,6.47,0,0,1-2.22-1.67,8.82,8.82,0,0,1-1.84,1.5,6,6,0,0,1-3.25.6c0,.06.19.14.7.14,1.35,0,4.17-.14,4.39-.14s3,.14,5.24.14c.94,0,1-.14,1-.19a10.24,10.24,0,0,1-4-.38" transform="translate(-275.51 -268.84)"/><path class="cls-112" d="M524.84,288.93a7.78,7.78,0,0,1-1.35-1.53c-.08.05-.09.2-.13.49-.09.9-.49,3.69-.53,4.59,0,.28,0,.47.08.47h0c0-.49.19-3,1.91-4" transform="translate(-275.51 -268.84)"/><path class="cls-3" d="M551.05,287.47a5.43,5.43,0,0,1-1.64,1.65c1.25,1.39,1.17,2.59,1.17,4.16,0,0,.13-.14.18-.71a43.54,43.54,0,0,1,.36-4.53c0-.31,0-.53-.07-.57" transform="translate(-275.51 -268.84)"/><path class="cls-113" d="M524.84,288.93c-1.72,1-1.88,3.53-1.91,4,.08,0,.12-.16.21-.52a5.37,5.37,0,0,1,.54-1.56c.67-.85,1.52-.9,4.88-.94,2.19-.05,4.43-.05,6.62-.1l.94-.94c-5.56,0-10.9,0-11.28,0" transform="translate(-275.51 -268.84)"/><path class="cls-114" d="M538,288.89l.94.94c1.88.05,3.76.05,5.64.1,4.84.09,5.19.71,5.6,1.6a4.3,4.3,0,0,1,.22,1.09c.05.47.09.66.18.66,0-1.57.08-2.77-1.17-4.16-.37-.18-6.39-.23-11.41-.23" transform="translate(-275.51 -268.84)"/><path class="cls-115" d="M551,287.47c-.18,0-.32.14-.67.23a24.31,24.31,0,0,1-4.08.24H529.5c-.54,0-2.69-.09-4-.24s-1.57-.33-1.92-.33a.15.15,0,0,0-.1,0,7.78,7.78,0,0,0,1.35,1.53c.38-.06,5.72-.05,11.28,0l.94.94.94-.94c5,0,11,.05,11.41.23a5.43,5.43,0,0,0,1.64-1.65h0" transform="translate(-275.51 -268.84)"/><path class="cls-116" d="M542.88,323.2a15,15,0,0,1-1.92-.09c-1.39-.19-1.66-1.66-1.8-3-.22-2-.22-5.72-.22-10.26v-20l-.94-.94-.94.94v31.46a6.47,6.47,0,0,0,2.22,1.67,10.24,10.24,0,0,0,4,.38s0-.14-.4-.14" transform="translate(-275.51 -268.84)"/><path class="cls-117" d="M536.12,288.89l-.94.94v20c0,4.54,0,8.28-.22,10.26-.18,1.37-.41,2.84-1.3,3a6.71,6.71,0,0,1-1.34.09c-.32,0-.36.09-.36.14a.11.11,0,0,0,0,.05,6,6,0,0,0,3.25-.6,8.82,8.82,0,0,0,1.84-1.5V289.83l-.94-.94" transform="translate(-275.51 -268.84)"/><path class="cls-118" d="M537.06,289.83l-.94-.94-.94.94v20c0,4.54,0,8.28-.22,10.26,0,.3-.08.6-.13.9h2.23V289.83" transform="translate(-275.51 -268.84)"/><path class="cls-119" d="M539.16,320.08c-.22-2-.22-5.72-.22-10.26v-20l-.94-.94-.94.94V321h2.22q-.07-.45-.12-.9" transform="translate(-275.51 -268.84)"/><path class="cls-120" d="M551,287.47c-.18,0-.32.14-.67.23a24.31,24.31,0,0,1-4.08.24H529.5c-.54,0-2.69-.09-4-.24s-1.57-.33-1.92-.33a.15.15,0,0,0-.1,0,7.78,7.78,0,0,0,1.35,1.53c.38-.06,5.72-.05,11.28,0l.94.94.94-.94c5,0,11,.05,11.41.23a5.43,5.43,0,0,0,1.64-1.65h0" transform="translate(-275.51 -268.84)"/><path class="cls-121" d="M525.52,288.9V290c.69-.07,1.65-.09,3-.11,2.19-.05,4.43-.05,6.62-.1l.94-.94c-4.55,0-8.94,0-10.6,0" transform="translate(-275.51 -268.84)"/><path class="cls-122" d="M538,288.89l.94.94c1.88.05,3.76.05,5.64.1a19.89,19.89,0,0,1,3.86.33V289c-2-.1-6.51-.13-10.44-.13" transform="translate(-275.51 -268.84)"/><path class="cls-123" d="M542.88,323.2a15,15,0,0,1-1.92-.09c-1.09-.15-1.49-1.08-1.68-2.13h-2.22v.31a6.47,6.47,0,0,0,2.22,1.67,10.24,10.24,0,0,0,4,.38s0-.14-.4-.14" transform="translate(-275.51 -268.84)"/><path class="cls-124" d="M538,288.89l.94.94,1.45,0v-1H538" transform="translate(-275.51 -268.84)"/><path class="cls-125" d="M549.41,289.12a13.91,13.91,0,0,0-2.08-.14v1.1c2.26.25,2.54.77,2.85,1.45a4.3,4.3,0,0,1,.22,1.09c.05.47.09.66.18.66,0-1.57.08-2.77-1.17-4.16" transform="translate(-275.51 -268.84)"/><path class="cls-126" d="M551.05,287.47a5.43,5.43,0,0,1-1.64,1.65c1.25,1.39,1.17,2.59,1.17,4.16,0,0,.13-.14.18-.71a43.54,43.54,0,0,1,.36-4.53c0-.31,0-.53-.07-.57" transform="translate(-275.51 -268.84)"/><path class="cls-127" d="M522.93,293c.08,0,.12-.16.21-.52.05-.2.14-.62.27-1h-.25a7.65,7.65,0,0,0-.23,1.51" transform="translate(-275.51 -268.84)"/><path class="cls-128" d="M522.83,292.48c0,.28,0,.47.08.47h0a5.58,5.58,0,0,1,.08-.8h-.16c0,.12,0,.24,0,.33" transform="translate(-275.51 -268.84)"/><polygon class="cls-129" points="261.55 20.99 260.61 20.04 259.67 20.99 259.67 22.48 261.55 22.48 261.55 20.99"/><path class="cls-130" d="M539.28,323a6.47,6.47,0,0,1-2.22-1.67,8.82,8.82,0,0,1-1.84,1.5,6,6,0,0,1-3.25.6c0,.06.19.14.7.14,1.35,0,4.17-.14,4.39-.14s3,.14,5.24.14c.94,0,1-.14,1-.19a10.24,10.24,0,0,1-4-.38" transform="translate(-275.51 -268.84)"/><path class="cls-131" d="M524.84,288.93a7.78,7.78,0,0,1-1.35-1.53c-.08.05-.09.2-.13.49-.08.81-.41,3.14-.51,4.26H523a4.47,4.47,0,0,1,1.83-3.22" transform="translate(-275.51 -268.84)"/><path class="cls-132" d="M539.16,320.08c-.22-2-.22-5.72-.22-10.26v-20l-.94-.94-.94.94V321h2.22q-.07-.45-.12-.9" transform="translate(-275.51 -268.84)"/><path class="cls-133" d="M529.5,287.94c-.54,0-2.69-.09-4-.24l-.37,0v1.24c1.26,0,6,0,11,0v-.95h-6.6" transform="translate(-275.51 -268.84)"/><path class="cls-134" d="M546.28,287.94H538v.95c4.76,0,10.42.05,11.29.21v-1.27c-.72.06-1.75.11-3,.11" transform="translate(-275.51 -268.84)"/><path class="cls-135" d="M524.84,288.93c-1.72,1-1.88,3.53-1.91,4,.08,0,.12-.16.21-.52a5.37,5.37,0,0,1,.54-1.56c.67-.85,1.52-.9,4.88-.94,2.19-.05,4.43-.05,6.62-.1l.94-.94c-5.56,0-10.9,0-11.28,0" transform="translate(-275.51 -268.84)"/><path class="cls-136" d="M536.12,288.89l-.94.94v20c0,4.54,0,8.28-.22,10.26-.18,1.37-.41,2.84-1.3,3a6.71,6.71,0,0,1-1.34.09c-.32,0-.36.09-.36.14a.11.11,0,0,0,0,.05,6,6,0,0,0,3.25-.6,8.82,8.82,0,0,0,1.84-1.5V289.83l-.94-.94" transform="translate(-275.51 -268.84)"/><path class="cls-137" d="M538,288.89l.94.94c1.88.05,3.76.05,5.64.1,4.84.09,5.19.71,5.6,1.6a4.3,4.3,0,0,1,.22,1.09c.05.47.09.66.18.66,0-1.57.08-2.77-1.17-4.16-.37-.18-6.39-.23-11.41-.23" transform="translate(-275.51 -268.84)"/><path class="cls-2" d="M589.84,324.17c-6.13,0-11.08-1.7-14.72-5.05a16.17,16.17,0,0,1-3.68-5.45,20.59,20.59,0,0,1-1.63-8,20.38,20.38,0,0,1,2.24-9.6,15.93,15.93,0,0,1,5.22-5.92c4-2.64,8.47-3,11.9-3a36.92,36.92,0,0,1,6.84.8,23,23,0,0,0,3.85.52c.26,0,.3.18.3.36s0,.29-.06.49a41.58,41.58,0,0,0-.26,5.51c0,.94-.18,1-.2,1s-.12-.32-.16-.83a.86.86,0,0,0,0-.15,6.42,6.42,0,0,0-.39-1.89c-.45-1.07-1.82-2.08-3.87-2.84a22,22,0,0,0-7.52-1.24,13.8,13.8,0,0,0-9.6,3.13c-2.78,2.33-4.44,6.82-4.44,12a20.84,20.84,0,0,0,1.79,8.45,16.24,16.24,0,0,0,3,4.66,15.85,15.85,0,0,0,11.74,5.06c1.09,0,3.79-.11,5.46-1.18a1,1,0,0,0,.54-1v-8.55c0-3.73-.08-5-1.89-5.27l-.22,0a10.51,10.51,0,0,0-1.21-.08c-.46,0-.55-.06-.55-.11s.18-.17.69-.17c1.51,0,3.5.08,4.46.12l.6,0,.75,0c1,0,2.68-.11,3.64-.11.5,0,.69.1.69.17s-.16.11-.47.11a5,5,0,0,0-1.17.1c-1.18.26-1.43,1.64-1.5,3.09s-.11,2.94-.11,4.92v5.58c0,1.84,0,1.92-.56,2.24a20.85,20.85,0,0,1-9.46,2.13" transform="translate(-275.51 -268.84)"/><path class="cls-3" d="M596,288.91l.09,0v-1l-.09,0v1" transform="translate(-275.51 -268.84)"/><path class="cls-3" d="M596.1,306.6a10.49,10.49,0,0,1,2,1.48,9,9,0,0,1,1.86-1.5c.94-.59,1.65-.6,3.2-.6,0-.09-.25-.17-.71-.17-1.35,0-4.17.14-4.39.14s-3-.14-5.06-.14c-.51,0-.69.08-.71.17,1.7,0,2.8,0,3.84.62" transform="translate(-275.51 -268.84)"/><path class="cls-3" d="M599.66,295.83c.09,0,.21-.25.21-1a41,41,0,0,1,.31-6,.47.47,0,0,0,0-.24,16.55,16.55,0,0,1-1.66,1.34,11.32,11.32,0,0,1,1.19,5.89" transform="translate(-275.51 -268.84)"/><path class="cls-138" d="M596.1,306.6c-1-.64-2.14-.62-3.84-.62v0c0,.09.17.14.58.14a12.3,12.3,0,0,1,1.43.09c1.75.24,1.88,1.42,1.88,5.25V320a1,1,0,0,1-.17.61l2.09.45v-13a10.49,10.49,0,0,0-2-1.48" transform="translate(-275.51 -268.84)"/><path class="cls-139" d="M571.93,304.91c0,11.67,8.46,18.32,18,18.32,3.67,0,6-.62,8.17-2.14l-2.09-.45a1.78,1.78,0,0,1-.37.34,11.14,11.14,0,0,1-5.46,1.18,15.86,15.86,0,0,1-11.73-5.06A19.87,19.87,0,0,1,573.68,304c0-5.53,1.83-9.83,4.43-12a13.75,13.75,0,0,1,9.58-3.12c5.77,0,10.47,1.93,11.37,4.06a6.77,6.77,0,0,1,.4,2c0,.67.09.85.18.85h0a11.32,11.32,0,0,0-1.19-5.89c-2.32-1.19-5.36-2-10.2-2-11.5,0-16.34,7.38-16.34,16.93" transform="translate(-275.51 -268.84)"/><path class="cls-140" d="M603.13,306c-1.55,0-2.26,0-3.2.6a9,9,0,0,0-1.86,1.5v13h0a11.28,11.28,0,0,1-2.72,1.39l.57.92a15.21,15.21,0,0,0,3.41-1.33,1.12,1.12,0,0,0,.42-.38,5,5,0,0,0,.16-1.89v-5.58c0-2,0-3.4.09-4.92s.4-2.83,1.48-3.07a5.4,5.4,0,0,1,1.16-.09c.27,0,.49-.05.49-.14v0" transform="translate(-275.51 -268.84)"/><path class="cls-141" d="M589.17,287.14c-3.45,0-7.88.33-11.91,3s-7.48,8-7.48,15.54c0,5.91,2.6,11,5.33,13.47,5,4.59,11.33,5.06,14.73,5.06a24.51,24.51,0,0,0,6.08-.79l-.57-.92a16.38,16.38,0,0,1-5.44.75c-9.52,0-18-6.65-18-18.32,0-9.55,4.84-16.93,16.34-16.93a26.16,26.16,0,0,1,7.75,1v-1a36.4,36.4,0,0,0-6.85-.8" transform="translate(-275.51 -268.84)"/><path class="cls-142" d="M598.47,289.93a15.09,15.09,0,0,0,1.66-1.33.27.27,0,0,0-.26-.14,22.84,22.84,0,0,1-3.85-.52v1a15.44,15.44,0,0,1,2.45,1h0" transform="translate(-275.51 -268.84)"/><path class="cls-143" d="M596,308.2a25.84,25.84,0,0,1,.13,3.28V320a1,1,0,0,1-.17.61l2.09.45V308.2H596" transform="translate(-275.51 -268.84)"/><path class="cls-144" d="M599.91,314.22c0-2,0-3.4.09-4.92a6.82,6.82,0,0,1,.32-1.94l-1-.4a7.84,7.84,0,0,0-1.3,1.12v12.73l1.76.64a8.73,8.73,0,0,0,.08-1.65v-5.58" transform="translate(-275.51 -268.84)"/><path class="cls-145" d="M603.13,306c-1.55,0-2.26,0-3.2.6-.2.12-.38.25-.56.38l1,.4a1.6,1.6,0,0,1,1.16-1.13,5.4,5.4,0,0,1,1.16-.09c.27,0,.49-.05.49-.14v0" transform="translate(-275.51 -268.84)"/><path class="cls-146" d="M598.07,308.08a10.49,10.49,0,0,0-2-1.48c-1-.64-2.14-.62-3.84-.62v0c0,.09.17.14.58.14a12.3,12.3,0,0,1,1.43.09c1.09.15,1.55.67,1.75,2h2.05v-.12" transform="translate(-275.51 -268.84)"/><path class="cls-147" d="M596.1,306.6a10.49,10.49,0,0,1,2,1.48,9,9,0,0,1,1.86-1.5c.94-.59,1.65-.6,3.2-.6,0-.09-.25-.17-.71-.17-1.35,0-4.17.14-4.39.14s-3-.14-5.06-.14c-.51,0-.69.08-.71.17,1.7,0,2.8,0,3.84.62" transform="translate(-275.51 -268.84)"/><path class="cls-148" d="M589.9,323.23c3.67,0,6-.62,8.17-2.14l-2.09-.45a1.78,1.78,0,0,1-.37.34,11.14,11.14,0,0,1-5.46,1.18h-.29v1.07h0" transform="translate(-275.51 -268.84)"/><path class="cls-149" d="M589.86,323.23v-1.07a15.86,15.86,0,0,1-11.44-5.06,11.45,11.45,0,0,1-1.19-1.48L576,317a17.86,17.86,0,0,0,13.9,6.27" transform="translate(-275.51 -268.84)"/><path class="cls-150" d="M575.11,319.13A19.7,19.7,0,0,0,586.44,324v-1.08a17.06,17.06,0,0,1-12.62-9.31H571.4a16,16,0,0,0,3.71,5.51" transform="translate(-275.51 -268.84)"/><path class="cls-151" d="M598.47,289.94a16.31,16.31,0,0,0-4.4-1.47v1.28c2.61.76,4.46,1.95,5,3.2a6.77,6.77,0,0,1,.4,2c0,.67.09.85.18.85h0a11.32,11.32,0,0,0-1.19-5.89" transform="translate(-275.51 -268.84)"/><path class="cls-152" d="M600.13,288.6a.27.27,0,0,0-.26-.14,22.84,22.84,0,0,1-3.85-.52v1a14.54,14.54,0,0,1,2.45,1,11.32,11.32,0,0,1,1.19,5.89c.09,0,.21-.25.21-1a41,41,0,0,1,.31-6,.47.47,0,0,0,0-.24" transform="translate(-275.51 -268.84)"/><path class="cls-153" d="M596.1,306.6c-1-.64-2.14-.62-3.84-.62v0c0,.09.17.14.58.14a12.3,12.3,0,0,1,1.43.09c1.75.24,1.88,1.42,1.88,5.25V320a1,1,0,0,1-.17.61l2.09.45v-13a10.49,10.49,0,0,0-2-1.48" transform="translate(-275.51 -268.84)"/><path class="cls-154" d="M603.13,306c-1.55,0-2.26,0-3.2.6a9,9,0,0,0-1.86,1.5v13h1.81c0-.3,0-.71,0-1.29v-5.58c0-2,0-3.4.09-4.92s.4-2.83,1.48-3.07a5.4,5.4,0,0,1,1.16-.09c.27,0,.49-.05.49-.14v0" transform="translate(-275.51 -268.84)"/><path class="cls-2" d="M625.7,288.72a12.19,12.19,0,0,0-9.36,3.9,13.71,13.71,0,0,0-2.75,4.87,22,22,0,0,0-1,6.8,24.25,24.25,0,0,0,1.11,7.49,17.25,17.25,0,0,0,3,5.71,13,13,0,0,0,10.2,4.93,11.7,11.7,0,0,0,7.7-2.95,12.88,12.88,0,0,0,3.31-4.94,23,23,0,0,0,1.37-8.35c0-5.32-1.44-9.81-4.16-13a12.37,12.37,0,0,0-9.47-4.47m0,35.45a17.81,17.81,0,0,1-7.88-1.71,15.39,15.39,0,0,1-5.39-4.38,20.32,20.32,0,0,1,.1-24.56A16.42,16.42,0,0,1,626,287.16a19.71,19.71,0,0,1,7,1.22,15.94,15.94,0,0,1,5.57,3.51c3.28,3.19,5,7.67,5,13a20.37,20.37,0,0,1-4.88,13.62,16.65,16.65,0,0,1-5.63,4.16,17.72,17.72,0,0,1-7.33,1.53" transform="translate(-275.51 -268.84)"/><path class="cls-155" d="M627,323.35c-8.56,0-16.44-5.89-16.44-18.09,0-11.49,7.22-17.37,15.12-17.37s15.86,5.25,15.86,18.33c0,13.34-10.28,17.13-14.54,17.13m-1-36.21c-12.36,0-17.64,10.82-17.64,18.48,0,8.5,5.1,18.57,17.37,18.57,10.79,0,17.86-8.74,17.86-19.33,0-11-7.52-17.72-17.59-17.72" transform="translate(-275.51 -268.84)"/><path class="cls-156" d="M627,322.4c-8.06,0-14.33-7.09-14.33-18.11,0-10.35,5.6-15.55,13.08-15.55,7.07,0,13.6,6.1,13.6,17.44,0,13.76-8.32,16.22-12.35,16.22m-1.27-34.51c-7.9,0-15.12,5.88-15.12,17.37,0,12.21,7.88,18.09,16.44,18.09,4.26,0,14.54-3.79,14.54-17.13,0-13.08-8-18.33-15.86-18.33" transform="translate(-275.51 -268.84)"/><path class="cls-157" d="M627,323.35a15.91,15.91,0,0,1-12.34-5.46l-1.27,1.3a16.29,16.29,0,0,0,12.35,5,18.48,18.48,0,0,0,3.85-.39V323a11.18,11.18,0,0,1-2.59.35" transform="translate(-275.51 -268.84)"/><path class="cls-158" d="M626,287.14c-.4,0-.78,0-1.17,0v.75q.42,0,.84,0a14.93,14.93,0,0,1,13.5,7.77h2.26c-2.93-5.43-8.6-8.52-15.43-8.52" transform="translate(-275.51 -268.84)"/><path class="cls-159" d="M637.62,297.22h2.3a14.89,14.89,0,0,0-14.2-9.33v.85c4.88,0,9.51,2.93,11.9,8.48" transform="translate(-275.51 -268.84)"/><path class="cls-160" d="M614.69,314.19l-1.52,1.61a15.65,15.65,0,0,0,13.69,7.55v-1c-5.23,0-9.7-3.06-12.17-8.2" transform="translate(-275.51 -268.84)"/></svg>